<?xml version="1.0" encoding="UTF-8"?>
<svg version="1.1" xmlns="http://www.w3.org/2000/svg" width="500" height="500">
<path d="M0 0 C1.69315866 1.63974672 3.3589305 3.30812339 5 5 C5.87398437 5.89976563 6.74796875 6.79953125 7.6484375 7.7265625 C13.62883459 14.08394737 18.67316763 20.37031879 23 28 C23.32597168 28.56589844 23.65194336 29.13179687 23.98779297 29.71484375 C33.38973668 46.14285249 39.24826175 61.88977514 37 81 C38.19496094 81.68255859 38.19496094 81.68255859 39.4140625 82.37890625 C42.16144657 84.10120895 43.0707785 84.93356905 44 88 C43.51198608 93.04281048 39.96487909 97.0909974 37 101 C37.3609375 101.53367188 37.721875 102.06734375 38.09375 102.6171875 C41.68347616 108.38069228 43.31948359 113.20407569 42 120 C40.68568305 122.01254782 39.35278115 124.01310269 38 126 C37.2438369 131.95478445 38.38010751 136.77869265 40 142.5 C44.7685846 159.52559772 38.23419542 175.5867699 33.46264648 192.09375 C31.85586121 197.6993768 30.48080348 203.22736249 29.54467773 208.98632812 C29 211 29 211 26.6875 213.5625 C24.05021046 214.97314324 21.95996628 215.66171814 19 216 C19.34675781 216.53367187 19.69351563 217.06734375 20.05078125 217.6171875 C21.45315948 220.12670644 22.40886796 222.1766211 23 225 C21.88838109 228.70368882 20.12254068 231.78260448 18 235 C17.34 235 16.68 235 16 235 C15.92483154 236.15616821 15.92483154 236.15616821 15.84814453 237.33569336 C15.61426455 240.87014487 15.36971221 244.40378261 15.125 247.9375 C15.04636719 249.14986328 14.96773437 250.36222656 14.88671875 251.61132812 C14.07071988 263.19223509 13.11950596 272.71050776 4.75 281.3125 C-6.07099367 287.95265521 -16.81389001 286.54372837 -28.73828125 283.8515625 C-32 283 -32 283 -35.10546875 281.8984375 C-38.0544707 280.98309276 -39.95258089 280.517533 -43 281 C-49.75236364 285.92525348 -54.5195449 292.92481466 -59.171875 299.74780273 C-62.75780244 304.90887682 -66.88838832 308.97016612 -71.4375 313.3125 C-75.35858549 317.42485795 -78.20838237 322.0741764 -81 327 C-84.96622551 326.48457385 -86.87432692 325.61157938 -89.62890625 322.7265625 C-90.27150391 322.0665625 -90.91410156 321.4065625 -91.57617188 320.7265625 C-92.23166016 320.03304688 -92.88714844 319.33953125 -93.5625 318.625 C-94.8740667 317.26086806 -96.18780163 315.89881682 -97.50390625 314.5390625 C-98.07955322 313.93271973 -98.6552002 313.32637695 -99.24829102 312.70166016 C-100.99633174 310.92032382 -100.99633174 310.92032382 -103.21850586 309.40380859 C-103.80639893 308.94055176 -104.39429199 308.47729492 -105 308 C-105 307.34 -105 306.68 -105 306 C-105.52851563 305.78859375 -106.05703125 305.5771875 -106.6015625 305.359375 C-109.95755297 303.45728268 -112.59331703 300.88767316 -115.375 298.25 C-116.32511963 297.35680054 -116.32511963 297.35680054 -117.29443359 296.44555664 C-126.264711 287.94298937 -134.94678821 279.13832798 -143.65087891 270.36499023 C-145.32855388 268.67598198 -147.01005405 266.99076974 -148.6940918 265.30810547 C-150.0302203 263.97070379 -151.35907612 262.62578718 -152.66796875 261.26171875 C-156.71300514 257.07110264 -161.0620173 253.45598347 -165.66796875 249.89453125 C-167.93601939 248.05197755 -169.97277779 246.10178671 -172 244 C-171.071875 243.195625 -171.071875 243.195625 -170.125 242.375 C-165.61667958 237.33628895 -165.64592467 231.48718734 -165.6875 225.0625 C-165.68878906 224.23218262 -165.69007813 223.40186523 -165.69140625 222.54638672 C-165.7942589 215.83139413 -166.78301057 209.61909475 -168.34375 203.1015625 C-168.94720135 200.24953648 -169.28658843 197.8965902 -169 195 C-168.01 194.01 -168.01 194.01 -167 193 C-167.22479064 191.09917406 -167.22479064 191.09917406 -168 189 C-168.39445312 187.77603516 -168.39445312 187.77603516 -168.796875 186.52734375 C-169.11140625 185.67269531 -169.4259375 184.81804687 -169.75 183.9375 C-170.05421875 183.08027344 -170.3584375 182.22304688 -170.671875 181.33984375 C-172.3273907 178.42321463 -174.14242049 177.68856971 -177 176 C-182.88273537 168.26021469 -186.09010874 159.17143946 -189 150 C-189.20866699 149.37561035 -189.41733398 148.7512207 -189.63232422 148.10791016 C-201.99764232 111.06811928 -206.8447569 60.47454011 -191 24 C-190.55785156 22.9790625 -190.11570313 21.958125 -189.66015625 20.90625 C-184.53498842 9.88926874 -176.81906768 0.24493577 -167 -7 C-166.34 -7 -165.68 -7 -165 -7 C-164.78988281 -7.58007812 -164.57976562 -8.16015625 -164.36328125 -8.7578125 C-156.61413466 -21.50282724 -131.79774372 -27.39698626 -118.32421875 -30.9765625 C-76.03886576 -40.07110073 -32.79252001 -27.37915163 0 0 Z " fill="#161512" transform="translate(323,102)"/>
<path d="M0 0 C1.69315866 1.63974672 3.3589305 3.30812339 5 5 C5.87398437 5.89976563 6.74796875 6.79953125 7.6484375 7.7265625 C13.62883459 14.08394737 18.67316763 20.37031879 23 28 C23.32597168 28.56589844 23.65194336 29.13179687 23.98779297 29.71484375 C33.38973668 46.14285249 39.24826175 61.88977514 37 81 C38.19496094 81.68255859 38.19496094 81.68255859 39.4140625 82.37890625 C42.16144657 84.10120895 43.0707785 84.93356905 44 88 C43.51198608 93.04281048 39.96487909 97.0909974 37 101 C37.3609375 101.53367188 37.721875 102.06734375 38.09375 102.6171875 C41.68347616 108.38069228 43.31948359 113.20407569 42 120 C40.68568305 122.01254782 39.35278115 124.01310269 38 126 C37.2438369 131.95478445 38.38010751 136.77869265 40 142.5 C44.7685846 159.52559772 38.23419542 175.5867699 33.46264648 192.09375 C31.85586121 197.6993768 30.48080348 203.22736249 29.54467773 208.98632812 C29 211 29 211 26.6875 213.5625 C24.05021046 214.97314324 21.95996628 215.66171814 19 216 C19.34675781 216.53367187 19.69351563 217.06734375 20.05078125 217.6171875 C21.45315948 220.12670644 22.40886796 222.1766211 23 225 C21.88838109 228.70368882 20.12254068 231.78260448 18 235 C17.34 235 16.68 235 16 235 C15.92483154 236.15616821 15.92483154 236.15616821 15.84814453 237.33569336 C15.61426455 240.87014487 15.36971221 244.40378261 15.125 247.9375 C15.04636719 249.14986328 14.96773437 250.36222656 14.88671875 251.61132812 C14.07071988 263.19223509 13.11950596 272.71050776 4.75 281.3125 C-5.72781508 287.74206834 -16.66934576 286.83455182 -28.26171875 284.0703125 C-46.45765484 278.86060875 -63.42021607 268.95689477 -80 260 C-80.95366455 259.49863525 -81.9073291 258.99727051 -82.88989258 258.48071289 C-83.58622803 257.99207764 -84.28256348 257.50344238 -85 257 C-86.48865223 245.88204773 -80.03083174 233.79136183 -75.4375 223.9375 C-67.42134051 206.6620859 -64.61985291 189.00588714 -64.73925781 170.02050781 C-64.74999816 168.00034611 -64.73926775 165.98107304 -64.7265625 163.9609375 C-64.71713057 154.79754328 -65.6019467 146.03676751 -67 137 C-67.33536043 134.66695715 -67.66926814 132.33370349 -68 130 C-67.03320312 129.87882813 -66.06640625 129.75765625 -65.0703125 129.6328125 C-63.76835937 129.46523437 -62.46640625 129.29765625 -61.125 129.125 C-59.84882813 128.96257812 -58.57265625 128.80015625 -57.2578125 128.6328125 C-52.47736877 127.92232453 -47.73910039 126.94782008 -43 126 C-42.67 144.81 -42.34 163.62 -42 183 C-39.03 179.37 -36.06 175.74 -33 172 C-29.34765625 169.4765625 -29.34765625 169.4765625 -26.0625 167.625 C-22.72530711 165.43866151 -20.47187542 163.51305172 -19.25976562 159.62646484 C-18.32530129 154.22175183 -18.21134977 148.83878768 -18.14453125 143.36645508 C-17.94429732 140.08796268 -16.9495142 137.13145907 -16 134 C-15.95984863 131.46675815 -15.95984863 131.46675815 -16.375 129.1875 C-16.48585938 128.43855469 -16.59671875 127.68960938 -16.7109375 126.91796875 C-16.85402344 125.96857422 -16.85402344 125.96857422 -17 125 C-17 124.34 -17 123.68 -17 123 C-17.165 122.13375 -17.33 121.2675 -17.5 120.375 C-18.87755369 111.0765126 -16.77871805 103.8323538 -14 95 C-11.77174356 97.22825644 -11.30760631 98.65761628 -10.375 101.625 C-10.11460937 102.44226563 -9.85421875 103.25953125 -9.5859375 104.1015625 C-9.39257812 104.72804687 -9.19921875 105.35453125 -9 106 C-8.01 106 -7.02 106 -6 106 C-5.94529648 104.29203442 -5.90689282 102.58354375 -5.875 100.875 C-5.85179687 99.92367187 -5.82859375 98.97234375 -5.8046875 97.9921875 C-5.8705417 94.96700502 -5.8705417 94.96700502 -6.98828125 92.125 C-8.18860539 88.41743508 -8.24785912 84.97612169 -8.3125 81.125 C-8.96205469 64.17429193 -12.78364112 47.3531717 -20 32 C-20.4846875 30.92492187 -20.969375 29.84984375 -21.46875 28.7421875 C-24.58796166 22.12215851 -28.206066 16.51668359 -33 11 C-33.86109375 10.00613281 -34.7221875 9.01226562 -35.609375 7.98828125 C-40.60093459 2.3308895 -45.55825821 -2.9857335 -52 -7 C-52.54221191 -7.3412793 -53.08442383 -7.68255859 -53.64306641 -8.03417969 C-63.36463772 -14.06932293 -72.94804608 -18.09432197 -84 -21 C-84.93259644 -21.26828613 -84.93259644 -21.26828613 -85.8840332 -21.54199219 C-106.24386564 -25.94894334 -125.48510465 -19.86313169 -142.93041992 -9.8972168 C-145.30586384 -8.86740007 -146.96724258 -8.7698276 -149.546875 -8.8046875 C-150.81337891 -8.81435547 -150.81337891 -8.81435547 -152.10546875 -8.82421875 C-152.97816406 -8.84097656 -153.85085937 -8.85773438 -154.75 -8.875 C-156.08224609 -8.88853516 -156.08224609 -8.88853516 -157.44140625 -8.90234375 C-159.62788058 -8.92585423 -161.81380094 -8.95871501 -164 -9 C-159.97210836 -13.51027387 -155.65978887 -16.16951078 -150.3125 -18.9375 C-149.4767041 -19.3713501 -148.6409082 -19.8052002 -147.77978516 -20.25219727 C-99.14040462 -44.80058502 -41.03369493 -34.25987862 0 0 Z " fill="#FAE3C9" transform="translate(323,102)"/>
<path d="M0 0 C23.55708472 19.4891423 35.79615834 47.70505293 38.75585938 77.77734375 C38.98421042 80.96945095 39.15824432 84.15205088 39.21264648 87.35205078 C39.27078211 90.50657333 39.49641631 93.08296751 40.5 96.08984375 C41.69276792 99.672862 41.68433384 102.66780648 41.61328125 106.43359375 C41.59523438 107.67882812 41.5771875 108.9240625 41.55859375 110.20703125 C41.53539062 111.14804688 41.5121875 112.0890625 41.48828125 113.05859375 C41.15828125 112.06859375 40.82828125 111.07859375 40.48828125 110.05859375 C39.16828125 110.38859375 37.84828125 110.71859375 36.48828125 111.05859375 C35.49828125 107.75859375 34.50828125 104.45859375 33.48828125 101.05859375 C33.01390625 102.48171875 32.53953125 103.90484375 32.05078125 105.37109375 C31.19661458 107.93359375 30.34244792 110.49609375 29.48828125 113.05859375 C29.19367813 118.8524552 29.89667549 123.48797358 31.48828125 129.05859375 C30.82828125 129.05859375 30.16828125 129.05859375 29.48828125 129.05859375 C29.83890625 129.71859375 30.18953125 130.37859375 30.55078125 131.05859375 C32.40695752 136.99835782 30.26258187 143.31280505 28.90234375 149.234375 C28.37809294 152.12796771 28.37809294 152.12796771 28.69921875 155.3515625 C29.10990497 164.16175974 29.10990497 164.16175974 25.9921875 167.80859375 C22.68540108 170.83351272 19.10574644 173.43753907 15.4765625 176.05859375 C11.36097815 179.03440445 8.43103154 182.36378458 5.5546875 186.546875 C5.20277344 187.04574219 4.85085938 187.54460937 4.48828125 188.05859375 C4.15828125 188.05859375 3.82828125 188.05859375 3.48828125 188.05859375 C3.48828125 168.91859375 3.48828125 149.77859375 3.48828125 130.05859375 C-3.44171875 132.03859375 -3.44171875 132.03859375 -10.51171875 134.05859375 C-14.32220495 134.20802458 -17.76634302 134.33376421 -21.51171875 134.05859375 C-21.30675781 134.72503906 -21.10179687 135.39148438 -20.890625 136.078125 C-20.62121094 136.99980469 -20.35179687 137.92148438 -20.07421875 138.87109375 C-19.80738281 139.76441406 -19.54054688 140.65773437 -19.265625 141.578125 C-17.26103333 150.83248345 -17.32530288 160.30581329 -17.32641602 169.73632812 C-17.32423647 171.79187982 -17.30602312 173.84688675 -17.28710938 175.90234375 C-17.23690375 187.81861394 -18.22320236 199.54878639 -21.51171875 211.05859375 C-22.17171875 211.05859375 -22.83171875 211.05859375 -23.51171875 211.05859375 C-23.62128906 211.63867188 -23.73085937 212.21875 -23.84375 212.81640625 C-24.82605525 217.65605652 -26.05993786 221.71225491 -28.51171875 226.05859375 C-28.84171875 226.05859375 -29.17171875 226.05859375 -29.51171875 226.05859375 C-29.52589844 225.14722656 -29.54007812 224.23585938 -29.5546875 223.296875 C-30.67938406 192.7476846 -43.52783002 166.41356204 -59.26171875 140.80859375 C-59.78000244 139.96401611 -60.29828613 139.11943848 -60.83227539 138.24926758 C-63.46636407 134.04467196 -66.20715379 130.18562299 -69.40234375 126.38671875 C-71.72882967 123.43929954 -72.4738715 122.29855585 -73.07421875 118.4921875 C-72.43979416 114.61955409 -71.64153119 110.87514237 -70.51171875 107.12109375 C-70.29459229 106.39180664 -70.07746582 105.66251953 -69.85375977 104.91113281 C-66.79505446 95.172701 -62.43321191 84.67362329 -55.51171875 77.05859375 C-53.51171875 76.05859375 -51.51171875 75.05859375 -49.51171875 74.05859375 C-46.14002067 69.05800099 -47.01109179 62.80296725 -47.51171875 57.05859375 C-51.24741255 38.73477921 -63.25535037 24.15659006 -78.3984375 13.96875 C-81.49169231 12.00268832 -81.49169231 12.00268832 -84.84375 10.4296875 C-87.51171875 9.05859375 -87.51171875 9.05859375 -88.51171875 7.05859375 C-102.69526638 5.92893066 -115.9264688 12.09671648 -126.63671875 21.12109375 C-136.59038372 30.5849752 -142.02851285 41.33207376 -146.51171875 54.05859375 C-146.98738281 55.32703125 -146.98738281 55.32703125 -147.47265625 56.62109375 C-149.52240408 62.30356298 -150.56554618 68.10327226 -151.51171875 74.05859375 C-151.84171875 74.05859375 -152.17171875 74.05859375 -152.51171875 74.05859375 C-152.98937769 57.46436821 -151.20243527 43.46058506 -144.51171875 28.05859375 C-144.06957031 27.03765625 -143.62742188 26.01671875 -143.171875 24.96484375 C-138.04670717 13.94786249 -130.33078643 4.30352952 -120.51171875 -2.94140625 C-119.85171875 -2.94140625 -119.19171875 -2.94140625 -118.51171875 -2.94140625 C-118.51171875 -3.60140625 -118.51171875 -4.26140625 -118.51171875 -4.94140625 C-117.24199219 -4.92078125 -115.97226563 -4.90015625 -114.6640625 -4.87890625 C-103.76260033 -4.92677567 -96.22008074 -6.25149914 -86.921875 -11.93359375 C-59.24281626 -28.23031333 -23.85124547 -18.12694656 0 0 Z " fill="#171613" transform="translate(276.51171875,97.94140625)"/>
<path d="M0 0 C1.18464844 -0.02578125 2.36929688 -0.0515625 3.58984375 -0.078125 C11.96823883 0.71353438 18.14487923 6.6666953 23.41308594 12.83007812 C36.39410208 28.84455278 47.32172183 49.51326458 47.125 70.5625 C47.11597656 71.81675781 47.10695313 73.07101563 47.09765625 74.36328125 C47.08605469 75.31589844 47.07445312 76.26851563 47.0625 77.25 C46.0003125 77.42015625 44.938125 77.5903125 43.84375 77.765625 C29.54626717 80.02651128 29.54626717 80.02651128 18.875 89.25 C11.72809324 99.80219763 6.1793366 113.29693674 7.0625 126.25 C7.578125 125.26 8.09375 124.27 8.625 123.25 C11.0625 120.25 11.0625 120.25 14.375 119.5 C19.32482968 120.50674502 21.73600005 122.66071297 25.0625 126.25 C25.96871094 127.178125 26.87492187 128.10625 27.80859375 129.0625 C42.59034802 145.17976199 40.97478545 167.06230818 40.24707031 187.68701172 C39.6533399 199.14852189 38.65926552 216.65323448 30.0625 225.25 C30.04832031 224.33863281 30.03414062 223.42726563 30.01953125 222.48828125 C28.89483469 191.93909085 16.04638873 165.60496829 0.3125 140 C-0.46492554 138.73313354 -0.46492554 138.73313354 -1.25805664 137.44067383 C-3.89214532 133.23607821 -6.63293504 129.37702924 -9.828125 125.578125 C-12.15461092 122.63070579 -12.89965275 121.4899621 -13.5 117.68359375 C-12.86557541 113.81096034 -12.06731244 110.06654862 -10.9375 106.3125 C-10.72037354 105.58321289 -10.50324707 104.85392578 -10.27954102 104.10253906 C-7.22083571 94.36410725 -2.85899316 83.86502954 4.0625 76.25 C6.0625 75.25 8.0625 74.25 10.0625 73.25 C13.43419808 68.24940724 12.56312696 61.9943735 12.0625 56.25 C8.3268062 37.92618546 -3.68113162 23.34799631 -18.82421875 13.16015625 C-21.79452851 11.33772027 -24.79522189 9.75282866 -27.9375 8.25 C-24.81005189 5.62504356 -21.87607001 4.36651549 -18 3.125 C-16.98035156 2.79242188 -15.96070313 2.45984375 -14.91015625 2.1171875 C-9.85221741 0.6416784 -5.28040287 0.06880004 0 0 Z " fill="#FAE3C9" transform="translate(216.9375,98.75)"/>
<path d="M0 0 C6.57071973 5.23491407 10.37022353 11.11067059 13 19 C13.74633157 28.51878625 13.53155313 36.39316307 7.38671875 43.99609375 C2.23143649 49.49429945 -2.23475948 52.13074003 -9.875 52.4375 C-17.85746279 52.19112769 -22.45106741 49.65306108 -28.25 44.3125 C-34.86501935 37.18963467 -36.63861053 30.60531636 -36.54125977 20.95751953 C-36.16666071 12.87266149 -33.46566275 6.98338229 -27.5625 1.5 C-19.72431717 -4.45432773 -8.52286903 -5.11714425 0 0 Z " fill="#161512" transform="translate(178,179)"/>
<path d="M0 0 C1.32 0 2.64 0 4 0 C4.33 1.010625 4.66 2.02125 5 3.0625 C6.76718276 7.25106298 9.5823292 9.60082746 13.0625 12.421875 C15 14 15 14 16.59375 15.6875 C17.98711848 17.25381652 17.98711848 17.25381652 20.5 17.25 C23.12717443 17.07997567 23.12717443 17.07997567 26 16 C27.85961414 20.2505466 28.93204565 24.49933525 30 29 C29.34 29 28.68 29 28 29 C28.350625 29.66 28.70125 30.32 29.0625 31 C30.91867627 36.93976407 28.77430062 43.2542113 27.4140625 49.17578125 C26.88981169 52.06937396 26.88981169 52.06937396 27.2109375 55.29296875 C27.62162372 64.10316599 27.62162372 64.10316599 24.50390625 67.75 C21.19711983 70.77491897 17.61746519 73.37894532 13.98828125 76 C9.8726969 78.9758107 6.94275029 82.30519083 4.06640625 86.48828125 C3.71449219 86.98714844 3.36257813 87.48601562 3 88 C2.67 88 2.34 88 2 88 C1.97504075 81.97176404 1.95701879 75.94355902 1.94506836 69.9152832 C1.94007955 67.87003047 1.93328611 65.82478122 1.92456055 63.77954102 C1.87896333 52.80670513 1.84126359 41.92504242 3 31 C3.66 31 4.32 31 5 31 C4.67 30.01 4.34 29.02 4 28 C4.99 27.1028125 4.99 27.1028125 6 26.1875 C8.3373846 24.12498166 8.3373846 24.12498166 8 21 C7.071875 21.2475 7.071875 21.2475 6.125 21.5 C1.72084064 22.2046655 -2.54066679 22.05945778 -7 22 C-7 16.39 -7 10.78 -7 5 C-3.535 4.505 -3.535 4.505 0 4 C0 2.68 0 1.36 0 0 Z " fill="#161512" transform="translate(278,198)"/>
<path d="M0 0 C6.78718284 5.49512739 11.09663126 11.72273996 12.703125 20.37890625 C13.91818022 32.74767248 13.78099879 44.28678659 7.703125 55.37890625 C7.3421875 56.09175781 6.98125 56.80460937 6.609375 57.5390625 C3.43661949 62.87609052 -1.50537529 65.49253206 -7.296875 67.37890625 C-16.98236099 69.24803513 -24.45597914 65.28755868 -32.36328125 59.99609375 C-39.23083666 54.61881323 -45.60763247 46.05135674 -47.296875 37.37890625 C-48.36278404 27.26609424 -47.0682294 16.89728828 -40.796875 8.56640625 C-31.22377656 -1.4239811 -12.72579079 -7.93978686 0 0 Z M-37.75390625 14.05078125 C-43.07339677 22.07715176 -43.25837366 30.11189062 -42.296875 39.37890625 C-39.84587393 47.78856327 -34.0788778 54.36879774 -26.609375 58.81640625 C-20.79553554 61.41287824 -13.98500638 61.7376915 -7.99609375 59.53125 C-2.08824665 56.14714341 3.25865654 50.86489014 5.875 44.55078125 C7.94892506 36.60725696 7.89401458 27.77468058 4.046875 20.41015625 C1.6181623 16.73884635 -1.22909291 13.5249844 -4.296875 10.37890625 C-4.79960937 9.83363281 -5.30234375 9.28835937 -5.8203125 8.7265625 C-9.98696269 4.92366749 -16.47625366 4.98700579 -21.8125 5.140625 C-29.07176159 5.83687493 -33.05380315 8.55802419 -37.75390625 14.05078125 Z " fill="#F2DFC9" transform="translate(184.296875,170.62109375)"/>
<path d="M0 0 C0.66 0 1.32 0 2 0 C4.46726314 8.26595773 6.39656843 16.47022272 7.6875 25 C7.81882324 25.85053955 7.95014648 26.7010791 8.08544922 27.57739258 C8.64571432 31.46539431 9.07230755 35.22118533 8.984375 39.15234375 C8.88525021 47.15667087 10.15852846 51.27389049 15.625 56.9375 C17.24545979 58.53515983 18.88831078 60.09966974 20.55957031 61.64404297 C22.34305224 63.32293426 23.92617605 65.12472221 25.5 67 C28.58897481 70.57351987 31.78845925 74.03707432 35 77.5 C38.8311384 81.63212702 42.61635611 85.79038916 46.30078125 90.0546875 C48.29406428 92.3366529 50.33493027 94.57228574 52.375 96.8125 C55.57652433 100.35160002 58.63146063 103.97103106 61.625 107.6875 C64.67516766 111.45784614 67.82240586 114.93952993 71.30078125 118.3125 C75.47360859 122.45654922 79.54787318 126.605321 82 132 C77.79527741 130.3726915 75.05630066 127.24362482 72 124.0625 C68.02664289 119.91528615 68.02664289 119.91528615 63.625 116.24609375 C63.08875 115.83488281 62.5525 115.42367187 62 115 C62 114.34 62 113.68 62 113 C61.47148437 112.78859375 60.94296875 112.5771875 60.3984375 112.359375 C57.04244703 110.45728268 54.40668297 107.88767316 51.625 105.25 C50.99158691 104.65453369 50.35817383 104.05906738 49.70556641 103.44555664 C40.735289 94.94298937 32.05321179 86.13832798 23.34912109 77.36499023 C21.67144612 75.67598198 19.98994595 73.99076974 18.3059082 72.30810547 C16.9697797 70.97070379 15.64092388 69.62578718 14.33203125 68.26171875 C10.28699486 64.07110264 5.9379827 60.45598347 1.33203125 56.89453125 C-0.93601939 55.05197755 -2.97277779 53.10178671 -5 51 C-4.38125 50.46375 -3.7625 49.9275 -3.125 49.375 C1.38332042 44.33628895 1.35407533 38.48718734 1.3125 32.0625 C1.31056641 30.81702393 1.31056641 30.81702393 1.30859375 29.54638672 C1.2057411 22.83139413 0.21698943 16.61909475 -1.34375 10.1015625 C-1.94720135 7.24953648 -2.28658843 4.8965902 -2 2 C-1.34 1.34 -0.68 0.68 0 0 Z " fill="#F6E2CB" transform="translate(156,295)"/>
<path d="M0 0 C0 0.66 0 1.32 0 2 C-1.23234375 2.15855469 -2.4646875 2.31710938 -3.734375 2.48046875 C-22.44430019 5.04834917 -39.09672166 11.16457454 -50.9921875 26.58203125 C-56.44890283 34.27291116 -59.8410913 42.19664628 -63 51 C-63.31839844 51.84691406 -63.63679687 52.69382813 -63.96484375 53.56640625 C-66.00825761 59.24933334 -67.05404511 65.04604865 -68 71 C-68.33 71 -68.66 71 -69 71 C-69.47765894 54.40577446 -67.69071652 40.40199131 -61 25 C-60.55785156 23.9790625 -60.11570313 22.958125 -59.66015625 21.90625 C-56.12619643 14.3097048 -51.54135534 8.24790338 -46 2 C-45.50886719 1.35675781 -45.01773438 0.71351562 -44.51171875 0.05078125 C-40.91642611 -4.32932453 -36.99732839 -5.09138415 -31.48828125 -5.75 C-19.57801379 -6.6035914 -10.28759157 -6.85839438 0 0 Z " fill="#F5E0C8" transform="translate(193,101)"/>
<path d="M0 0 C0.99 0.33 1.98 0.66 3 1 C3.01458252 2.08829102 3.02916504 3.17658203 3.04418945 4.29785156 C3.10279012 8.3909356 3.18001057 12.48350442 3.26245117 16.57617188 C3.2954133 18.33715361 3.32353148 20.09823373 3.34643555 21.859375 C3.66267665 45.54381476 10.44990119 59.21145837 27 76 C27.84256348 76.81452637 27.84256348 76.81452637 28.70214844 77.64550781 C30.16725102 79.06420832 31.58754903 80.52887154 33 82 C33 82.66 33 83.32 33 84 C33.55558594 84.2371875 34.11117187 84.474375 34.68359375 84.71875 C37.54371121 86.3007374 39.66948669 88.27662715 42.0625 90.5 C44.65920335 92.90536731 47.05106306 95.03404204 50 97 C49.505 98.98 49.505 98.98 49 101 C32.45627747 98.36343476 13.65191013 79.95426774 4.125 66.9375 C-3.69443699 55.15301831 -4.18036248 44.75033809 -4.1875 30.875 C-4.19974609 29.64523437 -4.21199219 28.41546875 -4.22460938 27.1484375 C-4.23792053 18.70029019 -3.8924661 10.26487535 -2 2 C-1.34 1.34 -0.68 0.68 0 0 Z " fill="#F3E0C9" transform="translate(185,259)"/>
<path d="M0 0 C10.08941099 12.84995201 14.29405342 29.96811601 13 46 C9.08957382 47.08584769 7.15665332 46.98294022 3.5625 45.125 C0.04225116 43.32394245 -3.07580349 42.53075464 -7 42 C-7.08636719 41.175 -7.17273438 40.35 -7.26171875 39.5 C-8.54042315 28.98881525 -11.07905454 19.01618994 -15.15625 9.22265625 C-16 7 -16 7 -16 4 C-13.90049414 3.13444052 -11.7952093 2.28288723 -9.6875 1.4375 C-8.51574219 0.96183594 -7.34398437 0.48617187 -6.13671875 -0.00390625 C-3 -1 -3 -1 0 0 Z " fill="#FAE4CA" transform="translate(275,126)"/>
<path d="M0 0 C1.33332095 2.6666419 0.67102033 4.16680303 0 7 C0.59425781 6.6390625 1.18851562 6.278125 1.80078125 5.90625 C8.30149514 2.26665902 13.57176563 0.91128168 21 2 C23.54346909 2.78950716 25.62492834 3.76083218 28 5 C28.33 5 28.66 5 29 5 C29.3585035 10.03896583 29.54114683 13.87762138 27.3125 18.5 C23.77230383 22.3272391 21.37029571 22.84013217 16.25 23.4375 C10.38125357 23.31476956 5.07555797 20.07555797 1 16 C1.5341951 20.91904654 3.01291385 24.30385843 5.5 28.5625 C5.84949707 29.16239746 6.19899414 29.76229492 6.55908203 30.38037109 C9.8074748 35.8651739 13.40879766 41.07640371 17.1171875 46.2578125 C20.00525747 50.46408868 21.64481152 53.58688601 21.5078125 58.8515625 C20.47582355 63.2176696 17.16723606 66.00597217 14 69 C13.401875 69.58265625 12.80375 70.1653125 12.1875 70.765625 C7.89295944 74.71506855 4.09895147 76.86526298 -1.875 77.125 C-2.57625 77.08375 -3.2775 77.0425 -4 77 C-1.58862843 75.07090275 0.8498995 73.51649985 3.5625 72.0625 C6.4610986 70.41061047 8.53571068 69.1116148 10 66 C9.77426109 62.80764728 9.77426109 62.80764728 9 60 C9.78375 59.71125 10.5675 59.4225 11.375 59.125 C14.09671632 58.15087746 14.09671632 58.15087746 16 56 C16 52.25579724 14.49154932 50.22345498 12.23046875 47.43359375 C8.82654417 42.97566207 6.54165817 38.31441684 4.3125 33.1875 C3.92457275 32.30747314 3.53664551 31.42744629 3.13696289 30.52075195 C-4.06508533 13.8757111 -4.06508533 13.8757111 -3 5 C-1.5 2.0625 -1.5 2.0625 0 0 Z " fill="#161512" transform="translate(336,207)"/>
<path d="M0 0 C1.16789062 0.02320313 1.16789062 0.02320313 2.359375 0.046875 C4.25 0.25 4.25 0.25 5.25 1.25 C7.14637475 1.11138474 9.04211409 0.96403762 10.9375 0.8125 C16.60460158 0.71118114 16.60460158 0.71118114 19.37890625 3.02734375 C20.85006243 5.04442295 22.11835227 7.02641148 23.25 9.25 C22.47265625 11.18359375 22.47265625 11.18359375 21.25 13.25 C18.92451993 13.94356423 16.59119555 14.61149212 14.25 15.25 C13.92 16.24 13.59 17.23 13.25 18.25 C10.49973583 18.30404449 7.75053797 18.34369306 5 18.375 C4.22269531 18.39175781 3.44539063 18.40851563 2.64453125 18.42578125 C-1.40033344 18.46035274 -4.21571418 18.4153723 -7.75 16.25 C-14.71399612 15.34725976 -19.91204495 17.66669458 -26.3828125 20.13671875 C-30.48532073 21.49311648 -33.48957273 21.67604273 -37.75 21.25 C-38.08 19.93 -38.41 18.61 -38.75 17.25 C-37.91339844 16.99347656 -37.07679688 16.73695313 -36.21484375 16.47265625 C-25.50559234 12.95034432 -16.47730917 7.73487278 -7.11328125 1.4921875 C-4.49840019 0.11775415 -2.92708296 -0.09822426 0 0 Z " fill="#191713" transform="translate(327.75,302.75)"/>
<path d="M0 0 C2.22825644 2.22825644 2.69239369 3.65761628 3.625 6.625 C3.88539063 7.44226563 4.14578125 8.25953125 4.4140625 9.1015625 C4.60742188 9.72804687 4.80078125 10.35453125 5 11 C5.99 11 6.98 11 8 11 C9.03025999 14.85317234 8.91871924 17.1809666 7.625 20.9375 C6.41904025 24.62145923 5.50748064 28.14314711 5 32 C5.99 32.66 6.98 33.32 8 34 C9.14724374 39.28406968 9.27606478 44.67053077 9.375 50.0625 C9.41238281 50.83916016 9.44976562 51.61582031 9.48828125 52.41601562 C9.55206203 56.60074355 9.26222359 59.22641387 6.6015625 62.55859375 C4 65 4 65 2 65 C1.67 63.35 1.34 61.7 1 60 C-0.32 60 -1.64 60 -3 60 C-3.495 62.475 -3.495 62.475 -4 65 C-4.33 65 -4.66 65 -5 65 C-5.33006304 58.32539186 -4.99767756 52.32978715 -3.4375 45.8125 C-2.07030041 40.04342883 -1.93529679 35.80747203 -3 30 C-3 29.34 -3 28.68 -3 28 C-3.165 27.13375 -3.33 26.2675 -3.5 25.375 C-4.87755369 16.0765126 -2.77871805 8.8323538 0 0 Z " fill="#EEDBC4" transform="translate(309,197)"/>
<path d="M0 0 C0 0.66 0 1.32 0 2 C2.475 2.495 2.475 2.495 5 3 C7.67164835 9.65461033 8.54808189 15.6007843 8.5 22.75 C8.49572998 23.71429932 8.49145996 24.67859863 8.48706055 25.67211914 C8.29717559 33.66942948 6.90459607 39.92224734 3 47 C2.60425781 47.72445312 2.20851562 48.44890625 1.80078125 49.1953125 C-0.85750078 53.41677033 -4.18106268 56.61717451 -9 58 C-13.35615193 58.31078979 -17.64166191 58.23594011 -22 58 C-21.84765625 55.640625 -21.84765625 55.640625 -21 53 C-18.55859375 51.734375 -18.55859375 51.734375 -15.4375 50.75 C-8.89737068 48.27893803 -4.77528489 44.89525256 -1 39 C1.92208521 31.9639264 2.38902428 23.58640093 0.171875 16.265625 C-0.79629444 14.11253177 -1.84879094 12.05982617 -3 10 C-4.44034623 6.66446136 -5.3856086 3.58394981 -6 0 C-3 -1 -3 -1 0 0 Z " fill="#F6E3CD" transform="translate(189,179)"/>
<path d="M0 0 C1.93175333 2.89763 2.59908799 4.75881871 3.4375 8.078125 C3.82035156 9.57279297 3.82035156 9.57279297 4.2109375 11.09765625 C4.47132813 12.13792969 4.73171875 13.17820313 5 14.25 C5.76867616 17.27523537 6.53899213 20.29985242 7.3215332 23.3215332 C7.73444574 24.95163881 8.12668552 26.58740687 8.48120117 28.23120117 C8.91965168 30.31790241 8.91965168 30.31790241 10 33 C11.97010518 34.23999394 11.97010518 34.23999394 14.3125 34.8125 C17.92014843 36.55552115 19.29732679 38.16790308 20.59765625 41.85546875 C21.9731346 46.51530384 22.99328406 51.24959067 24 56 C24.31696118 57.35786547 24.63825051 58.71473148 24.96484375 60.0703125 C25.67331651 63.04132728 26.35141639 66.01546078 27 69 C24.525 69.495 24.525 69.495 22 70 C7.9790326 51.996746 -1.23026268 22.96490345 0 0 Z " fill="#F2DFC7" transform="translate(126,210)"/>
<path d="M0 0 C0 5.94 0 11.88 0 18 C4.62 17.67 9.24 17.34 14 17 C10.30518724 20.69481276 9.09440878 20.45824255 4 20.5 C-5.34542075 20.45027829 -13.12144267 17.40417406 -20 11 C-18.07989934 6.11247104 -14.48824728 3.90588965 -10.125 1.25 C-7 0 -7 0 0 0 Z " fill="#F5E2CC" transform="translate(270,202)"/>
<path d="M0 0 C0.87398438 0.27263672 0.87398438 0.27263672 1.765625 0.55078125 C11.76058882 3.61527487 21.52930235 6.32820745 32 7 C31.67 9.31 31.34 11.62 31 14 C26.64655438 14.50641298 22.29214175 15.00398642 17.9375 15.5 C16.09381836 15.71462891 16.09381836 15.71462891 14.21289062 15.93359375 C13.01728516 16.06894531 11.82167969 16.20429688 10.58984375 16.34375 C9.49534912 16.46943359 8.40085449 16.59511719 7.27319336 16.72460938 C3.83380258 17.01398305 0.4499 17.04582048 -3 17 C-1.33705466 15.2539074 0.10583218 13.93650069 2.1875 12.6875 C4.28524358 11.07522413 4.28524358 11.07522413 4.5 8.125 C3.90144704 4.38404398 2.56506559 2.72538219 0 0 Z " fill="#1B1813" transform="translate(307,330)"/>
<path d="M0 0 C2.90961476 1.45480738 3.05318608 3.36306748 4.1875 6.375 C7.96355212 15.72100583 13.65657365 23.66485174 19.51953125 31.80859375 C22.19952873 35.77555572 23.63615813 38.91942313 23.5078125 43.8515625 C22.47582355 48.2176696 19.16723606 51.00597217 16 54 C15.401875 54.58265625 14.80375 55.1653125 14.1875 55.765625 C9.89295944 59.71506855 6.09895147 61.86526298 0.125 62.125 C-0.57625 62.08375 -1.2775 62.0425 -2 62 C0.41137157 60.07090275 2.8498995 58.51649985 5.5625 57.0625 C8.4610986 55.41061047 10.53571068 54.1116148 12 51 C11.77426109 47.80764728 11.77426109 47.80764728 11 45 C11.78375 44.71125 12.5675 44.4225 13.375 44.125 C16.09671632 43.15087746 16.09671632 43.15087746 18 41 C18 37.25838239 16.49581037 35.23112817 14.234375 32.4453125 C10.78660215 27.93169589 8.50685518 23.18998056 6.25 18 C5.86457031 17.14921875 5.47914063 16.2984375 5.08203125 15.421875 C2.82783222 10.3362772 1.18283433 5.4360046 0 0 Z " fill="#161310" transform="translate(334,222)"/>
<path d="M0 0 C9.17940145 7.3834316 16.53812285 16.36984026 23.91015625 25.50390625 C26.23270962 28.27794663 28.706208 30.79655018 31.30078125 33.3125 C35.47360859 37.45654922 39.54787318 41.605321 42 47 C37.79527741 45.3726915 35.05630066 42.24362482 32 39.0625 C28.02664289 34.91528615 28.02664289 34.91528615 23.625 31.24609375 C23.08875 30.83488281 22.5525 30.42367188 22 30 C22 29.34 22 28.68 22 28 C21.11380981 27.59599976 21.11380981 27.59599976 20.2097168 27.18383789 C18.00200536 26.00107435 16.460642 24.77098753 14.64453125 23.05859375 C14.02586182 22.47883789 13.40719238 21.89908203 12.76977539 21.30175781 C12.12387451 20.68655273 11.47797363 20.07134766 10.8125 19.4375 C10.14919678 18.81069336 9.48589355 18.18388672 8.80249023 17.53808594 C6.86204917 15.69850529 4.92957215 13.85097137 3 12 C2.47986328 11.50322754 1.95972656 11.00645508 1.42382812 10.49462891 C-4.1251962 5.17456918 -4.1251962 5.17456918 -6 3 C-6 2.34 -6 1.68 -6 1 C-4.68 1 -3.36 1 -2 1 C-2 1.66 -2 2.32 -2 3 C-1.34 3 -0.68 3 0 3 C0 2.01 0 1.02 0 0 Z " fill="#EDDBC6" transform="translate(196,380)"/>
<path d="M0 0 C2.64852989 2.3768858 4.68758997 4.24654051 6.0625 7.5625 C6 10 6 10 4.3125 12.3125 C2 14 2 14 -2 14 C-1.5875 14.886875 -1.175 15.77375 -0.75 16.6875 C0 20 0 20 -1.5625 22.75 C-4.0076219 25.0070356 -5.8437992 26.03560531 -9 27 C-10.125 23.25 -10.125 23.25 -9 21 C-9.88042969 21.22816406 -10.76085937 21.45632813 -11.66796875 21.69140625 C-12.82941406 21.97886719 -13.99085938 22.26632812 -15.1875 22.5625 C-16.33605469 22.85253906 -17.48460937 23.14257812 -18.66796875 23.44140625 C-21.88480093 23.98068761 -23.89672783 23.88247476 -27 23 C-25.98929671 20.3354186 -25.0600516 19.04804128 -22.8125 17.25 C-19.34123295 15.70721464 -16.76193131 15.71608066 -13 16 C-12.34 16.33 -11.68 16.66 -11 17 C-11 16.34 -11 15.68 -11 15 C-10.34 15 -9.68 15 -9 15 C-8.67 14.34 -8.34 13.68 -8 13 C-6.68 13.33 -5.36 13.66 -4 14 C-3.3503125 12.6078125 -3.3503125 12.6078125 -2.6875 11.1875 C-1.27961373 8.52815927 -0.23876444 6.91894095 2 5 C1.34 5 0.68 5 0 5 C0 3.35 0 1.7 0 0 Z " fill="#F6E2CA" transform="translate(347,253)"/>
<path d="M0 0 C2.22825644 2.22825644 2.69239369 3.65761628 3.625 6.625 C3.88539063 7.44226563 4.14578125 8.25953125 4.4140625 9.1015625 C4.60742188 9.72804687 4.80078125 10.35453125 5 11 C5.99 11 6.98 11 8 11 C9.67669801 17.52177708 7.73899323 22.86426221 4.53125 28.6484375 C1.72102131 33.01531247 1.72102131 33.01531247 0 35 C-0.66 35 -1.32 35 -2 35 C-3 30.25 -3 30.25 -3 28 C-3.165 27.13375 -3.33 26.2675 -3.5 25.375 C-4.87755369 16.0765126 -2.77871805 8.8323538 0 0 Z " fill="#1E1A15" transform="translate(309,197)"/>
<path d="M0 0 C1.32 0 2.64 0 4 0 C5.35096169 2.70192339 5.15033416 4.98154873 5.25 8 C5.93779514 17.17397341 8.74813845 23.23202186 15.5 29.5 C20.65381612 33.92792652 25.30026825 35.21179626 32 36 C31.34 37.98 30.68 39.96 30 42 C33.3 42 36.6 42 40 42 C40 42.33 40 42.66 40 43 C29.45763847 44.12064473 21.46019645 40.72750281 13.1875 34.25 C6.24748947 27.76813198 0.31755279 19.25723329 -0.171875 9.61328125 C-0.18576184 6.40194914 -0.1320506 3.20834046 0 0 Z " fill="#E8DAC6" transform="translate(137,195)"/>
<path d="M0 0 C0.66 0 1.32 0 2 0 C1.34 1.65 0.68 3.3 0 5 C0.99 4.67 1.98 4.34 3 4 C5.1875 5.4375 5.1875 5.4375 7 7 C6.40316406 7.83917969 5.80632812 8.67835938 5.19140625 9.54296875 C2.93440888 12.93293706 1.38712411 16.51863771 -0.0625 20.3125 C-0.31999023 20.97475586 -0.57748047 21.63701172 -0.84277344 22.31933594 C-1.5718639 24.2090571 -2.28637951 26.10438275 -3 28 C-3.32355469 28.85464844 -3.64710938 29.70929688 -3.98046875 30.58984375 C-6.00386138 36.26972256 -7.05541624 42.05467871 -8 48 C-8.33 48 -8.66 48 -9 48 C-9.49378517 30.84553744 -7.81938132 15.63876263 0 0 Z " fill="#EEDAC5" transform="translate(133,124)"/>
<path d="M0 0 C0.66 0 1.32 0 2 0 C4.10555444 8.15902344 2.88735503 15.92818698 1 24 C0.01 23.67 -0.98 23.34 -2 23 C-2.33 23.66 -2.66 24.32 -3 25 C-3.99 24.67 -4.98 24.34 -6 24 C-6.061875 24.598125 -6.12375 25.19625 -6.1875 25.8125 C-7.33938899 28.91373958 -9.06759592 29.64108103 -12 31 C-12.66 30.67 -13.32 30.34 -14 30 C-13.50628906 29.51789063 -13.01257813 29.03578125 -12.50390625 28.5390625 C-11.54291016 27.59160156 -11.54291016 27.59160156 -10.5625 26.625 C-9.92441406 25.99851562 -9.28632813 25.37203125 -8.62890625 24.7265625 C-5.68960814 21.61104748 -5.88290781 19.17783831 -5.8671875 14.97265625 C-5.93120067 12.78675465 -5.93120067 12.78675465 -7 10 C-6.01 10 -5.02 10 -4 10 C-4.0825 9.278125 -4.165 8.55625 -4.25 7.8125 C-3.92256852 4.12889581 -2.53906064 2.61373889 0 0 Z " fill="#E5D1BC" transform="translate(362,247)"/>
<path d="M0 0 C0.86882812 0.00644531 1.73765625 0.01289063 2.6328125 0.01953125 C4.875 0.1875 4.875 0.1875 6.875 1.1875 C6.875 3.1675 6.875 5.1475 6.875 7.1875 C6.26914062 7.27386719 5.66328125 7.36023438 5.0390625 7.44921875 C-0.96014979 8.4552405 -5.76019355 10.24410913 -11.09375 13.1640625 C-13.125 14.1875 -13.125 14.1875 -15.125 14.1875 C-14.68265629 9.32171921 -12.40778437 5.70034473 -9.125 2.1875 C-6.04441676 0.19456454 -3.63324639 -0.05965031 0 0 Z " fill="#211C18" transform="translate(353.125,176.8125)"/>
<path d="M0 0 C4.64924294 8.22912459 3.18638704 19.49149017 3.18530273 28.67773438 C3.18748228 30.73328607 3.20569563 32.788293 3.22460938 34.84375 C3.274815 46.76002019 2.28851639 58.49019264 -1 70 C-1.33 70 -1.66 70 -2 70 C-1.85688704 68.14562138 -1.71036549 66.29150571 -1.5625 64.4375 C-1.48128906 63.40496094 -1.40007812 62.37242187 -1.31640625 61.30859375 C-1.10564497 59.10470725 -0.83097204 56.90599764 -0.49291992 54.71801758 C0.32087763 48.5796704 0.24044684 42.43319006 0.25 36.25 C0.25233643 35.56412811 0.25467285 34.87825623 0.25708008 34.17160034 C0.27157844 22.8894062 -0.63561724 12.04785992 -3 1 C-2.01 0.67 -1.02 0.34 0 0 Z " fill="#372C1F" transform="translate(256,239)"/>
<path d="M0 0 C0.66 0 1.32 0 2 0 C6.76771654 16.34645669 6.76771654 16.34645669 6 23 C5.34 23.99 4.68 24.98 4 26 C3.54084493 28.96842658 3.54084493 28.96842658 3.375 32.1875 C3.26285156 33.81751953 3.26285156 33.81751953 3.1484375 35.48046875 C3.09945312 36.31191406 3.05046875 37.14335937 3 38 C2.67 38 2.34 38 2 38 C1.9498877 37.34515625 1.89977539 36.6903125 1.84814453 36.015625 C1.61411232 33.0098235 1.36963195 30.00495665 1.125 27 C1.04636719 25.97003906 0.96773437 24.94007813 0.88671875 23.87890625 C0.40261221 18.0323888 -0.44193692 12.65280738 -2 7 C-2.25 4.125 -2.25 4.125 -2 2 C-1.34 1.34 -0.68 0.68 0 0 Z " fill="#EBDCC7" transform="translate(156,295)"/>
<path d="M0 0 C0.33 0 0.66 0 1 0 C1.88495979 5.39609631 2.24452022 10.65942567 2.3125 16.125 C2.34150391 16.91003906 2.37050781 17.69507813 2.40039062 18.50390625 C2.44477288 22.55293339 2.29373334 24.52639284 0.10546875 28.0546875 C-2 30 -2 30 -4 30 C-4.60551292 19.23532584 -2.9863065 10.2654286 0 0 Z " fill="#27221D" transform="translate(316,231)"/>
<path d="M0 0 C3.4656051 3.4656051 3.21607098 6.99292921 3.3125 11.6875 C3.27990875 17.98413012 2.48250751 21.77623874 -1 27 C-1.66 27.33 -2.32 27.66 -3 28 C-5.07249333 17.63753333 -3.10805614 9.87917843 0 0 Z " fill="#F2DFCC" transform="translate(309,197)"/>
<path d="M0 0 C1.90955546 2.86433318 2.59285111 4.69934356 3.4375 7.97265625 C3.69273437 8.95556641 3.94796875 9.93847656 4.2109375 10.95117188 C4.47132813 11.97791016 4.73171875 13.00464844 5 14.0625 C5.26039063 15.06216797 5.52078125 16.06183594 5.7890625 17.09179688 C7.40175476 23.35930545 8.80540453 29.63965748 10 36 C9.34 36 8.68 36 8 36 C8.33 37.98 8.66 39.96 9 42 C7.24351714 39.36527572 6.55596155 37.8915904 5.78125 34.9375 C5.57201904 34.14585449 5.36278809 33.35420898 5.1472168 32.53857422 C4.93363525 31.70084473 4.72005371 30.86311523 4.5 30 C4.27932861 29.14293457 4.05865723 28.28586914 3.83129883 27.40283203 C1.4881709 18.17169339 -0.31348472 9.56128383 0 0 Z " fill="#E0CFBE" transform="translate(126,210)"/>
<path d="M0 0 C2.90961476 1.45480738 3.05318608 3.36306748 4.1875 6.375 C7.98136663 15.76509806 13.70458806 23.73996917 19.6171875 31.90625 C21 34 21 34 22 37 C20.5625 39.1875 20.5625 39.1875 19 41 C18.79375 40.34 18.5875 39.68 18.375 39 C17.15720936 36.34300225 16.01737873 34.67699622 14.2109375 32.4375 C10.78058954 27.92556652 8.50224414 23.17937677 6.25 18 C5.86457031 17.14921875 5.47914063 16.2984375 5.08203125 15.421875 C2.82783222 10.3362772 1.18283433 5.4360046 0 0 Z " fill="#251F16" transform="translate(334,222)"/>
<path d="M0 0 C2.2920105 3.43801575 3.4472539 6.91508846 4.6875 10.8125 C4.92533203 11.51181641 5.16316406 12.21113281 5.40820312 12.93164062 C7.02800355 18.00954871 7.47997749 22.04004502 5 27 C4.34 27 3.68 27 3 27 C2.18503358 23.93815094 1.37346753 20.87541042 0.5625 17.8125 C0.21735352 16.51602539 0.21735352 16.51602539 -0.13476562 15.19335938 C-2.67864046 5.57087629 -2.67864046 5.57087629 -3 3 C-1.5625 1.1875 -1.5625 1.1875 0 0 Z " fill="#231E18" transform="translate(260,135)"/>
<path d="M0 0 C4.58470268 0.54579794 8.14611146 1.40281425 12 4 C13.64753892 6.53423521 14.78442153 9.23962389 16 12 C17.84963301 15.43406129 19.83567451 18.75351177 22 22 C18.87327251 20.62177144 16.84197456 19.03754129 14.5 16.5625 C12.62046062 14.60665453 11.01258251 13.00838834 8.75 11.5 C6.09989799 9.22848399 5.35922147 6.17151676 4 3 C1.97053147 1.07663031 1.97053147 1.07663031 0 0 Z " fill="#EDDCC6" transform="translate(276,194)"/>
<path d="M0 0 C2.4375 1 2.4375 1 4 2 C4 2.99 4 3.98 4 5 C1.94077867 5.53364887 -0.12256107 6.05142189 -2.1875 6.5625 C-3.33605469 6.85253906 -4.48460937 7.14257812 -5.66796875 7.44140625 C-8.88480093 7.98068761 -10.89672783 7.88247476 -14 7 C-12.98929671 4.3354186 -12.0600516 3.04804128 -9.8125 1.25 C-6.29752155 -0.31221264 -3.81344505 -0.34667682 0 0 Z " fill="#1E1913" transform="translate(334,269)"/>
<path d="M0 0 C3.45880492 0.56652839 4.81726981 1.54432403 7 4.25 C9.3047659 7.02378828 11.65160037 9.72444188 14.12109375 12.3515625 C14.66701172 12.93260742 15.21292969 13.51365234 15.77539062 14.11230469 C16.87642965 15.27997533 17.98056421 16.44473542 19.08789062 17.60644531 C23 21.78019258 23 21.78019258 23 24 C18.79527741 22.3726915 16.05630066 19.24362482 13 16.0625 C9.02664289 11.91528615 9.02664289 11.91528615 4.625 8.24609375 C4.08875 7.83488281 3.5525 7.42367188 3 7 C3 6.34 3 5.68 3 5 C1.68 4.34 0.36 3.68 -1 3 C-0.67 2.01 -0.34 1.02 0 0 Z " fill="#E8D9C7" transform="translate(215,403)"/>
<path d="M0 0 C1.65 0.33 3.3 0.66 5 1 C5 2.32 5 3.64 5 5 C4.01 5 3.02 5 2 5 C1.67 6.98 1.34 8.96 1 11 C0.34 11 -0.32 11 -1 11 C-1 15.29 -1 19.58 -1 24 C-1.33 24 -1.66 24 -2 24 C-2 19.38 -2 14.76 -2 10 C-3.65 10.33 -5.3 10.66 -7 11 C-7 9.68 -7 8.36 -7 7 C-7.99 6.34 -8.98 5.68 -10 5 C-9.37351562 4.86722656 -8.74703125 4.73445312 -8.1015625 4.59765625 C-7.28429687 4.42105469 -6.46703125 4.24445313 -5.625 4.0625 C-4.81289063 3.88847656 -4.00078125 3.71445313 -3.1640625 3.53515625 C-0.970537 3.07669307 -0.970537 3.07669307 1 2 C0.67 1.34 0.34 0.68 0 0 Z " fill="#342D26" transform="translate(282,218)"/>
<path d="M0 0 C4.29 0.33 8.58 0.66 13 1 C12.01 2.485 12.01 2.485 11 4 C10.7525 4.86625 10.505 5.7325 10.25 6.625 C9 9 9 9 6 9.9375 C5.01 9.958125 4.02 9.97875 3 10 C2.34 9.34 1.68 8.68 1 8 C0.34 7.67 -0.32 7.34 -1 7 C-0.67 4.69 -0.34 2.38 0 0 Z " fill="#25201D" transform="translate(265,221)"/>
<path d="M0 0 C1.32 0 2.64 0 4 0 C5.44207941 2.88415883 5.09394887 5.41721528 5.0625 8.625 C5.05347656 9.81351563 5.04445312 11.00203125 5.03515625 12.2265625 C5.02355469 13.14179688 5.01195312 14.05703125 5 15 C3.02 15.99 3.02 15.99 1 17 C-0.13480527 13.39006828 -0.10015767 10.0157673 -0.0625 6.25 C-0.05347656 5.07953125 -0.04445312 3.9090625 -0.03515625 2.703125 C-0.02355469 1.81109375 -0.01195312 0.9190625 0 0 Z " fill="#DACBB7" transform="translate(137,195)"/>
<path d="M0 0 C2 3 2 3 1.625 6.1875 C1.41875 7.115625 1.2125 8.04375 1 9 C0.34 9 -0.32 9 -1 9 C-0.67 9.99 -0.34 10.98 0 12 C-0.33 12.99 -0.66 13.98 -1 15 C-0.195625 15.268125 0.60875 15.53625 1.4375 15.8125 C2.283125 16.204375 3.12875 16.59625 4 17 C4.33 17.99 4.66 18.98 5 20 C5.99 20.33 6.98 20.66 8 21 C7.01 21.33 6.02 21.66 5 22 C2.79569625 20.42128179 0.83057597 18.85238363 -1.1875 17.0625 C-1.74630859 16.58103516 -2.30511719 16.09957031 -2.88085938 15.60351562 C-4.26179717 14.41142402 -5.63194679 13.20685625 -7 12 C-6.37609375 11.25363281 -5.7521875 10.50726563 -5.109375 9.73828125 C-3.38431297 7.49889517 -2.26518482 5.7762213 -1.25 3.1875 C-0.8375 2.135625 -0.425 1.08375 0 0 Z " fill="#E6D8C5" transform="translate(158,335)"/>
<path d="M0 0 C0.66 1.32 1.32 2.64 2 4 C3.32 3.67 4.64 3.34 6 3 C7.20703125 5.19921875 7.20703125 5.19921875 8 8 C6.69921875 10.45703125 6.69921875 10.45703125 4.6875 12.8125 C4.03136719 13.60269531 3.37523437 14.39289063 2.69921875 15.20703125 C1.85810547 16.09455078 1.85810547 16.09455078 1 17 C0.67 17 0.34 17 0 17 C0 11.39 0 5.78 0 0 Z " fill="#2F2921" transform="translate(280,269)"/>
<path d="M0 0 C2.4294516 3.6441774 2.16179575 5.71241272 2 10 C-2.41062136 11.0257259 -4.92630576 11.03684712 -9 9 C-9 7.35 -9 5.7 -9 4 C-6.03 4.495 -6.03 4.495 -3 5 C-2.01 3.35 -1.02 1.7 0 0 Z " fill="#211A12" transform="translate(339,291)"/>
<path d="M0 0 C3.63 0 7.26 0 11 0 C11 1.98 11 3.96 11 6 C7.04 6.66 3.08 7.32 -1 8 C-0.34 6.35 0.32 4.7 1 3 C1.66 3 2.32 3 3 3 C3 2.34 3 1.68 3 1 C1.68 1.33 0.36 1.66 -1 2 C-0.67 1.34 -0.34 0.68 0 0 Z " fill="#17130D" transform="translate(349,178)"/>
<path d="M0 0 C3.3 0 6.6 0 10 0 C10.86627399 1.59766103 11.71766465 3.20339944 12.5625 4.8125 C13.27599609 6.15248047 13.27599609 6.15248047 14.00390625 7.51953125 C15 10 15 10 14 13 C13.2575 12.38125 12.515 11.7625 11.75 11.125 C9.20458508 8.98432706 9.20458508 8.98432706 6.75 8 C5 7 5 7 4.25 4.875 C4.12625 3.946875 4.12625 3.946875 4 3 C5.32 3.33 6.64 3.66 8 4 C5.4345406 1.4345406 3.52313332 1.45953913 0 1 C0 0.67 0 0.34 0 0 Z " fill="#FBE7CE" transform="translate(349,200)"/>
<path d="M0 0 C0.66 0.33 1.32 0.66 2 1 C1.25403037 8.4596963 -0.36746129 15.68951218 -2 23 C-2.33 23 -2.66 23 -3 23 C-3.02895976 19.87501937 -3.04678483 16.7500731 -3.0625 13.625 C-3.07087891 12.73554688 -3.07925781 11.84609375 -3.08789062 10.9296875 C-3.09111328 10.07890625 -3.09433594 9.228125 -3.09765625 8.3515625 C-3.10289307 7.56604004 -3.10812988 6.78051758 -3.11352539 5.97119141 C-3 4 -3 4 -2 2 C-1.34 2 -0.68 2 0 2 C0 1.34 0 0.68 0 0 Z " fill="#DED1C2" transform="translate(127,149)"/>
<path d="M0 0 C0.33 0 0.66 0 1 0 C1.10864945 2.06132142 1.18588321 4.12431321 1.25 6.1875 C1.29640625 7.33605469 1.3428125 8.48460937 1.390625 9.66796875 C0.92615622 13.62988749 -0.18448829 15.23141348 -3 18 C-3.66 18 -4.32 18 -5 18 C-5.35193697 12.7209455 -5.35193697 12.7209455 -5 10 C-3.0625 7.875 -3.0625 7.875 -1 6 C-0.19684346 2.85518209 -0.19684346 2.85518209 0 0 Z " fill="#13110F" transform="translate(317,243)"/>
<path d="M0 0 C0.99 0.66 1.98 1.32 3 2 C3.6875 5.625 3.6875 5.625 4 9 C-0.75 12 -0.75 12 -3 12 C-2.88541307 10.56163249 -2.75790884 9.12429034 -2.625 7.6875 C-2.55539062 6.88699219 -2.48578125 6.08648437 -2.4140625 5.26171875 C-2 3 -2 3 0 0 Z " fill="#ECD8C2" transform="translate(339,202)"/>
<path d="M0 0 C2 3 2 3 1.625 5.6875 C1.41875 6.450625 1.2125 7.21375 1 8 C2.13888672 8.05607422 2.13888672 8.05607422 3.30078125 8.11328125 C4.29464844 8.17902344 5.28851563 8.24476563 6.3125 8.3125 C7.29863281 8.37050781 8.28476562 8.42851562 9.30078125 8.48828125 C12.24384457 9.04622813 13.18182999 9.68540132 15 12 C13.18818595 12.19401633 11.37551468 12.38004375 9.5625 12.5625 C8.04849609 12.71912109 8.04849609 12.71912109 6.50390625 12.87890625 C5.26447266 12.93884766 5.26447266 12.93884766 4 13 C3.67 12.67 3.34 12.34 3 12 C0.67182036 11.63239269 -1.6618385 11.29758419 -4 11 C-2.68 10.34 -1.36 9.68 0 9 C0 6.03 0 3.06 0 0 Z " fill="#D5C6B4" transform="translate(329,292)"/>
<path d="M0 0 C1.80411967 2.75924185 2.0127245 3.88972103 1.625 7.25 C1.41875 8.1575 1.2125 9.065 1 10 C0.01 10.33 -0.98 10.66 -2 11 C-2.99 10.34 -3.98 9.68 -5 9 C-4.5206753 4.68607774 -3.2542015 2.83430453 0 0 Z " fill="#FCE7CC" transform="translate(194,316)"/>
<path d="M0 0 C0 0.99 0 1.98 0 3 C0.99 3.66 1.98 4.32 3 5 C-0.85477249 7.56984833 -4.52040582 8.85814266 -9 10 C-8.67 9.4225 -8.34 8.845 -8 8.25 C-6.72924102 5.80116138 -6.72924102 5.80116138 -7 2 C-4.35261084 0.5393715 -3.10551666 0 0 0 Z " fill="#EEDBC8" transform="translate(162,169)"/>
<path d="M0 0 C2.2477975 2.05233685 3.0022242 3.00667261 4 6 C3.0625 8.6875 3.0625 8.6875 2 11 C0.02 11 -1.96 11 -4 11 C-4.33 9.68 -4.66 8.36 -5 7 C-4.360625 6.5875 -3.72125 6.175 -3.0625 5.75 C-0.79009069 3.82189513 -0.39803561 2.88575819 0 0 Z " fill="#EDD8C1" transform="translate(342,321)"/>
<path d="M0 0 C0.66 0.33 1.32 0.66 2 1 C1.11954345 2.61265753 0.21989504 4.21484475 -0.6875 5.8125 C-1.18636719 6.70582031 -1.68523437 7.59914062 -2.19921875 8.51953125 C-4.18472636 11.25444955 -6.01765727 12.47072375 -9 14 C-9 13.01 -9 12.02 -9 11 C-6.5 8.8125 -6.5 8.8125 -4 7 C-4.33 6.01 -4.66 5.02 -5 4 C-5.66 4.66 -6.32 5.32 -7 6 C-9.125 5.625 -9.125 5.625 -11 5 C-8.875 2.9375 -8.875 2.9375 -6 1 C-2.6875 1.25 -2.6875 1.25 0 2 C0 1.34 0 0.68 0 0 Z " fill="#E9D8C4" transform="translate(192,221)"/>
<path d="M0 0 C2.86299506 2.86299506 2.99421225 4.65852284 3.0625 8.6875 C3.041875 9.780625 3.02125 10.87375 3 12 C1.02 12.66 -0.96 13.32 -3 14 C-2.69024532 12.22868439 -2.37709575 10.45796222 -2.0625 8.6875 C-1.88847656 7.70136719 -1.71445312 6.71523437 -1.53515625 5.69921875 C-1 3 -1 3 0 0 Z " fill="#E2D2C2" transform="translate(309,197)"/>
<path d="M0 0 C2.8125 0.1875 2.8125 0.1875 6 1 C7.9375 3.3125 7.9375 3.3125 9 6 C8.72830763 8.98861604 7.40775496 11.37219075 6 14 C5.67 14 5.34 14 5 14 C5.020625 12.88625 5.04125 11.7725 5.0625 10.625 C5.26380718 7.16784079 5.26380718 7.16784079 4 5 C3.01 4.67 2.02 4.34 1 4 C0.3125 1.9375 0.3125 1.9375 0 0 Z " fill="#D2C2B1" transform="translate(358,184)"/>
<path d="M0 0 C2.92238795 1.46119397 3.09679513 3.41994727 4.25 6.4375 C6.62375285 12.35416756 9.55448917 17.64820998 13 23 C11.68 23.33 10.36 23.66 9 24 C7.67968946 20.94080952 6.3701594 17.87711716 5.0625 14.8125 C4.68931641 13.94818359 4.31613281 13.08386719 3.93164062 12.19335938 C3.57392578 11.35224609 3.21621094 10.51113281 2.84765625 9.64453125 C2.51773682 8.87471924 2.18781738 8.10490723 1.84790039 7.31176758 C0.95990651 4.89068666 0.44152652 2.53730576 0 0 Z " fill="#443727" transform="translate(334,222)"/>
<path d="M0 0 C2.26274865 2.26274865 2.92661942 4.02857095 4.0625 7 C5.41920836 10.54955475 5.41920836 10.54955475 7 14 C4.36638744 13.62376963 2.92779828 12.94785432 0.75 11.375 C-1.633853 8.13977092 -1.36359615 5.92683844 -1 2 C-0.67 1.34 -0.34 0.68 0 0 Z " fill="#2F2619" transform="translate(306,267)"/>
<path d="M0 0 C0.33 0 0.66 0 1 0 C1.25 7.625 1.25 7.625 -1 11 C-1.45915507 13.96842658 -1.45915507 13.96842658 -1.625 17.1875 C-1.69976562 18.27417969 -1.77453125 19.36085938 -1.8515625 20.48046875 C-1.90054688 21.31191406 -1.94953125 22.14335937 -2 23 C-2.33 23 -2.66 23 -3 23 C-3.33 16.73 -3.66 10.46 -4 4 C-3.01 3.67 -2.02 3.34 -1 3 C-0.67 2.01 -0.34 1.02 0 0 Z " fill="#D3C4B4" transform="translate(161,310)"/>
<path d="M0 0 C1.33332095 2.6666419 0.67102033 4.16680303 0 7 C1.65 7 3.3 7 5 7 C4.375 8.9375 4.375 8.9375 3 11 C-0.125 11.75 -0.125 11.75 -3 12 C-3.2954439 6.97745369 -2.98514628 4.10457614 0 0 Z " fill="#2E2820" transform="translate(336,207)"/>
<path d="M0 0 C2.14228123 3.21342185 2.88488147 5.70584737 3.8125 9.4375 C4.10769531 10.57058594 4.40289062 11.70367187 4.70703125 12.87109375 C5 16 5 16 3.57421875 18.41015625 C3.05472656 18.93480469 2.53523437 19.45945313 2 20 C0.57997892 13.2168636 -0.22731216 6.93302093 0 0 Z " fill="#C8C0B4" transform="translate(126,210)"/>
<path d="M0 0 C4.21675877 2.56017497 5.72455851 5.75250922 8 10 C8.99 11.485 8.99 11.485 10 13 C6.54798361 11.52278578 4.35038064 9.56205999 1.75 6.875 C1.04359375 6.15054688 0.3371875 5.42609375 -0.390625 4.6796875 C-1.18726563 3.84824219 -1.18726563 3.84824219 -2 3 C-1.34 2.01 -0.68 1.02 0 0 Z " fill="#D9CDC0" transform="translate(288,203)"/>
<path d="M0 0 C0.598125 0.309375 1.19625 0.61875 1.8125 0.9375 C4.08956772 2.10209704 4.08956772 2.10209704 7 3 C7 3.66 7 4.32 7 5 C8.29233607 6.37310707 9.62437146 7.71034824 11 9 C9.234375 9.703125 9.234375 9.703125 7 10 C5.078125 8.671875 5.078125 8.671875 3.25 6.75 C2.63640625 6.12609375 2.0228125 5.5021875 1.390625 4.859375 C0 3 0 3 0 0 Z " fill="#F5E5D2" transform="translate(198,333)"/>
<path d="M0 0 C0.66 0 1.32 0 2 0 C3.35439668 2.70879335 3.06501451 5.00933268 3 8 C2.01 8 1.02 8 0 8 C-0.33 8.66 -0.66 9.32 -1 10 C-1.9765625 3.9453125 -1.9765625 3.9453125 -2 2 C-1.34 1.34 -0.68 0.68 0 0 Z " fill="#EBDECC" transform="translate(156,295)"/>
<path d="M0 0 C0.33 0.99 0.66 1.98 1 3 C0.0925 3.061875 -0.815 3.12375 -1.75 3.1875 C-5.81748455 4.20437114 -6.69526609 5.58263592 -9 9 C-9.5775 9.763125 -10.155 10.52625 -10.75 11.3125 C-11.36875 12.1478125 -11.36875 12.1478125 -12 13 C-12.66 12.67 -13.32 12.34 -14 12 C-5.78640777 0 -5.78640777 0 0 0 Z " fill="#241D13" transform="translate(158,177)"/>
<path d="M0 0 C2.475 0.99 2.475 0.99 5 2 C5.33 1.34 5.66 0.68 6 0 C6.99 0.33 7.98 0.66 9 1 C8.2884375 1.61875 8.2884375 1.61875 7.5625 2.25 C5.83733482 4.182185 5.43415125 5.48192275 5 8 C3.02 6.35 1.04 4.7 -1 3 C-0.67 2.01 -0.34 1.02 0 0 Z " fill="#E5D4C0" transform="translate(178,367)"/>
<path d="M0 0 C1.32 1.32 2.64 2.64 4 4 C2.02 4.99 2.02 4.99 0 6 C0 4.02 0 2.04 0 0 Z M-6 6 C-4.02 6 -2.04 6 0 6 C0.33 7.98 0.66 9.96 1 12 C-0.16945792 11.19152271 -1.33550461 10.37810888 -2.5 9.5625 C-3.1496875 9.11003906 -3.799375 8.65757812 -4.46875 8.19140625 C-4.9740625 7.79824219 -5.479375 7.40507812 -6 7 C-6 6.67 -6 6.34 -6 6 Z " fill="#E3D2C0" transform="translate(213,337)"/>
<path d="M0 0 C0.69867188 0.0721875 1.39734375 0.144375 2.1171875 0.21875 C3.02726562 0.3115625 3.93734375 0.404375 4.875 0.5 C5.77992188 0.5928125 6.68484375 0.685625 7.6171875 0.78125 C9.93313211 1.03047295 9.93313211 1.03047295 12 1 C11.67 1.99 11.34 2.98 11 4 C10.21625 4.12375 9.4325 4.2475 8.625 4.375 C5.85942178 4.79117993 5.85942178 4.79117993 4 7 C3.01 7.495 3.01 7.495 2 8 C1.34 5.36 0.68 2.72 0 0 Z " fill="#26211B" transform="translate(329,303)"/>
<path d="M0 0 C0.66 0.33 1.32 0.66 2 1 C1.67 1.99 1.34 2.98 1 4 C0.34 4 -0.32 4 -1 4 C-0.67 4.99 -0.34 5.98 0 7 C-7.425 6.01 -7.425 6.01 -15 5 C-15 4.67 -15 4.34 -15 4 C-14.33613281 3.96261719 -13.67226562 3.92523438 -12.98828125 3.88671875 C-7.81366298 3.5014552 -4.36579927 3.001487 0 0 Z " fill="#2D2419" transform="translate(183,89)"/>
<path d="M0 0 C0 0.66 0 1.32 0 2 C1.32 2.66 2.64 3.32 4 4 C3.34 4.66 2.68 5.32 2 6 C-0.42797311 6 -2.62907005 5.49914315 -5 5 C-4.625 3.0625 -4.625 3.0625 -4 1 C-2 0 -2 0 0 0 Z " fill="#F2DBC3" transform="translate(218,341)"/>
<path d="M0 0 C0.66 0.33 1.32 0.66 2 1 C-0.475 5.455 -0.475 5.455 -3 10 C-3.99 10 -4.98 10 -6 10 C-6 8.02 -6 6.04 -6 4 C-4.35 3.67 -2.7 3.34 -1 3 C-0.67 2.01 -0.34 1.02 0 0 Z " fill="#211C14" transform="translate(217,177)"/>
<path d="M0 0 C1.3125 2.0625 1.3125 2.0625 2 4 C-0.64 4 -3.28 4 -6 4 C-6.33 2.68 -6.66 1.36 -7 0 C-4.25509788 -1.37245106 -2.87939419 -0.93580311 0 0 Z " fill="#261F16" transform="translate(296,320)"/>
<path d="M0 0 C0.556875 0.28875 1.11375 0.5775 1.6875 0.875 C4.08494645 2.0413253 6.51596939 3.0339881 9 4 C8.67 4.99 8.34 5.98 8 7 C4.84859577 6.65930765 3.39218439 6.41923159 1.1875 4.0625 C0 2 0 2 0 0 Z " fill="#E3D6C6" transform="translate(144,273)"/>
<path d="M0 0 C0.556875 0.226875 1.11375 0.45375 1.6875 0.6875 C1.6875 1.3475 1.6875 2.0075 1.6875 2.6875 C-6.74107143 6.11607143 -6.74107143 6.11607143 -11.3125 5.6875 C-3.40789474 -0.46052632 -3.40789474 -0.46052632 0 0 Z " fill="#3C3123" transform="translate(343.3125,278.3125)"/>
<path d="M0 0 C0.33 0 0.66 0 1 0 C1.06058594 0.77085937 1.12117188 1.54171875 1.18359375 2.3359375 C1.26738281 3.33882812 1.35117187 4.34171875 1.4375 5.375 C1.51871094 6.37273437 1.59992188 7.37046875 1.68359375 8.3984375 C1.84965626 10.97927613 1.84965626 10.97927613 3 13 C2.0625 15.625 2.0625 15.625 1 18 C0.67 18 0.34 18 0 18 C0 12.06 0 6.12 0 0 Z " fill="#F8E9D4" transform="translate(315,172)"/>
<path d="M0 0 C0.99 0 1.98 0 3 0 C3.66 0.66 4.32 1.32 5 2 C2.03 4.475 2.03 4.475 -1 7 C-1.66 6.67 -2.32 6.34 -3 6 C-1.125 1.125 -1.125 1.125 0 0 Z " fill="#221E17" transform="translate(346,273)"/>
<path d="M0 0 C1.67180274 0.94934513 3.33733936 1.90973313 5 2.875 C5.928125 3.40867188 6.85625 3.94234375 7.8125 4.4921875 C8.8953125 5.23855469 8.8953125 5.23855469 10 6 C10 6.66 10 7.32 10 8 C7.03 7.67 4.06 7.34 1 7 C0.67 4.69 0.34 2.38 0 0 Z " fill="#E3D4C1" transform="translate(336,222)"/>
<path d="M0 0 C0.66 0 1.32 0 2 0 C3.2890625 1.4609375 3.2890625 1.4609375 4.625 3.375 C5.29402344 4.31472656 5.29402344 4.31472656 5.9765625 5.2734375 C7 7 7 7 7 9 C4.83125748 8.49396008 3.00032373 8.00016187 1 7 C1.33 6.34 1.66 5.68 2 5 C1.67 4.67 1.34 4.34 1 4 C0.34 3.34 -0.32 2.68 -1 2 C-0.67 1.34 -0.34 0.68 0 0 Z " fill="#E0CFBB" transform="translate(337,119)"/>
<path d="M0 0 C2.375 1.3125 2.375 1.3125 3.1875 3.4375 C3.249375 4.05625 3.31125 4.675 3.375 5.3125 C2.385 5.8075 2.385 5.8075 1.375 6.3125 C-1.1000171 5.19818235 -3.30383419 3.73099022 -5.625 2.3125 C-5.625 1.6525 -5.625 0.9925 -5.625 0.3125 C-2.625 -0.6875 -2.625 -0.6875 0 0 Z " fill="#F0DDC7" transform="translate(271.625,89.6875)"/>
<path d="M0 0 C0.33 0.99 0.66 1.98 1 3 C2.2375 3.495 2.2375 3.495 3.5 4 C4.7375 4.495 4.7375 4.495 6 5 C6.33 5.99 6.66 6.98 7 8 C7.99 8.33 8.98 8.66 10 9 C9.01 9.33 8.02 9.66 7 10 C4.03 7.36 1.06 4.72 -2 2 C-1.34 1.34 -0.68 0.68 0 0 Z " fill="#D2C4B2" transform="translate(156,347)"/>
<path d="M0 0 C2.96584667 1.37700024 5.67664502 2.67664502 8 5 C8.25 8.1875 8.25 8.1875 8 11 C4.32966073 7.72291137 2.30718811 4.28477792 0 0 Z " fill="#E7D6C5" transform="translate(215,126)"/>
<path d="M0 0 C0.33 0.99 0.66 1.98 1 3 C0.01 4.485 0.01 4.485 -1 6 C-1.66 6 -2.32 6 -3 6 C-3.33 6.99 -3.66 7.98 -4 9 C-5.32 8.67 -6.64 8.34 -8 8 C-5.36 5.36 -2.72 2.72 0 0 Z " fill="#241D16" transform="translate(151,117)"/>
<path d="M0 0 C3.78639125 1.26213042 4.04104596 2.65345351 6 6 C6.99 6.66 7.98 7.32 9 8 C8.67 9.32 8.34 10.64 8 12 C7.60167969 11.51789063 7.20335937 11.03578125 6.79296875 10.5390625 C6.26316406 9.90742187 5.73335937 9.27578125 5.1875 8.625 C4.66542969 7.99851562 4.14335937 7.37203125 3.60546875 6.7265625 C1.91774261 4.7778952 1.91774261 4.7778952 -1 3 C-0.67 2.01 -0.34 1.02 0 0 Z " fill="#EDDECA" transform="translate(206,114)"/>
<path d="M0 0 C2.4294516 3.6441774 2.16179575 5.71241272 2 10 C1.01 10.33 0.02 10.66 -1 11 C-1.0270043 9.54176788 -1.04639787 8.08339325 -1.0625 6.625 C-1.07410156 5.81289063 -1.08570313 5.00078125 -1.09765625 4.1640625 C-1 2 -1 2 0 0 Z " fill="#44392C" transform="translate(339,291)"/>
<path d="M0 0 C0 0.66 0 1.32 0 2 C-0.66 2 -1.32 2 -2 2 C-1.34 3.32 -0.68 4.64 0 6 C-0.99 6.495 -0.99 6.495 -2 7 C-4.03144641 6.06553465 -6.03533587 5.06775224 -8 4 C-2.7826087 0 -2.7826087 0 0 0 Z " fill="#D9CBBA" transform="translate(197,103)"/>
<path d="M0 0 C2.31 0 4.62 0 7 0 C4.77174356 2.22825644 3.34238372 2.69239369 0.375 3.625 C-0.44226563 3.88539062 -1.25953125 4.14578125 -2.1015625 4.4140625 C-2.72804687 4.60742188 -3.35453125 4.80078125 -4 5 C-4.99 4.01 -5.98 3.02 -7 2 C-4.69 2 -2.38 2 0 2 C0 1.34 0 0.68 0 0 Z " fill="#2A2014" transform="translate(193,101)"/>
<path d="M0 0 C-1.47692308 4.67692308 -1.47692308 4.67692308 -4.125 6.3125 C-5.053125 6.6528125 -5.053125 6.6528125 -6 7 C-6 5.02 -6 3.04 -6 1 C-3.92446352 0.4465236 -2.15634036 0 0 0 Z " fill="#221C13" transform="translate(318,254)"/>
<path d="M0 0 C0.33 0 0.66 0 1 0 C1.33 3.63 1.66 7.26 2 11 C0.68 10.67 -0.64 10.34 -2 10 C-1.34 6.7 -0.68 3.4 0 0 Z " fill="#4E4033" transform="translate(316,231)"/>
<path d="M0 0 C1.875 0.3125 1.875 0.3125 4 1 C4.66 1.99 5.32 2.98 6 4 C5.34 4 4.68 4 4 4 C3.67 4.99 3.34 5.98 3 7 C1.68 5.35 0.36 3.7 -1 2 C-0.67 1.34 -0.34 0.68 0 0 Z " fill="#DACEBD" transform="translate(147,222)"/>
<path d="M0 0 C0.66 0 1.32 0 2 0 C1.649375 0.763125 1.29875 1.52625 0.9375 2.3125 C-0.32360884 5.04759379 -0.32360884 5.04759379 1 8 C0.34 8 -0.32 8 -1 8 C-1 8.66 -1 9.32 -1 10 C-1.99 10.33 -2.98 10.66 -4 11 C-3.52269162 9.5410574 -3.04308958 8.08286504 -2.5625 6.625 C-2.29566406 5.81289062 -2.02882812 5.00078125 -1.75390625 4.1640625 C-1 2 -1 2 0 0 Z " fill="#D3C4B2" transform="translate(133,124)"/>
<path d="M0 0 C1.875 0.125 1.875 0.125 4 1 C5.25 4.0625 5.25 4.0625 6 7 C5.01 7 4.02 7 3 7 C3 6.34 3 5.68 3 5 C1.68 4.34 0.36 3.68 -1 3 C-0.67 2.01 -0.34 1.02 0 0 Z " fill="#D7C7B2" transform="translate(215,403)"/>
<path d="M0 0 C0.66 1.32 1.32 2.64 2 4 C0.35 5.65 -1.3 7.3 -3 9 C-3.66 8.67 -4.32 8.34 -5 8 C-4.34 6.35 -3.68 4.7 -3 3 C-2.01 3.33 -1.02 3.66 0 4 C0 2.68 0 1.36 0 0 Z " fill="#E8D5C1" transform="translate(345,269)"/>
<path d="M0 0 C0.33 0.99 0.66 1.98 1 3 C0.01 3.495 0.01 3.495 -1 4 C-1.33 4.99 -1.66 5.98 -2 7 C-4.0625 7.6875 -4.0625 7.6875 -6 8 C-6.33 6.68 -6.66 5.36 -7 4 C-5.824375 3.566875 -5.824375 3.566875 -4.625 3.125 C-1.90328368 2.15087746 -1.90328368 2.15087746 0 0 Z " fill="#312A1F" transform="translate(352,263)"/>
<path d="M0 0 C1.9451 2.91765 2.45276317 4.62537285 3 8 C1.68 8.33 0.36 8.66 -1 9 C-1.09765625 2.84765625 -1.09765625 2.84765625 -1 1 C-0.67 0.67 -0.34 0.34 0 0 Z " fill="#E0D6C7" transform="translate(130,226)"/>
<path d="M0 0 C0 0.66 0 1.32 0 2 C-3.21451269 3.60725635 -6.43612536 3.05748185 -10 3 C-10 2.34 -10 1.68 -10 1 C-6.52674819 -0.1577506 -3.63932552 -0.06866652 0 0 Z " fill="#2C2216" transform="translate(358,227)"/>
<path d="M0 0 C0.66 0 1.32 0 2 0 C3.38232443 1.62626404 4.71937515 3.2925002 6 5 C3.36 5.99 0.72 6.98 -2 8 C-1.67 7.4225 -1.34 6.845 -1 6.25 C0.27075898 3.80116138 0.27075898 3.80116138 0 0 Z " fill="#E3D0BB" transform="translate(155,171)"/>
<path d="M0 0 C6.42857143 4.14285714 6.42857143 4.14285714 9 7 C6 8 6 8 3.8125 7.0625 C3.214375 6.711875 2.61625 6.36125 2 6 C2 5.34 2 4.68 2 4 C1.34 3.67 0.68 3.34 0 3 C0 2.01 0 1.02 0 0 Z " fill="#D7C8B4" transform="translate(313,95)"/>
<path d="M0 0 C3.875 1.75 3.875 1.75 5 4 C3.02 4.33 1.04 4.66 -1 5 C-1 1 -1 1 0 0 Z " fill="#31271D" transform="translate(322,272)"/>
<path d="M0 0 C0.99 0.33 1.98 0.66 3 1 C3.73046875 2.84765625 3.73046875 2.84765625 4.1875 5.0625 C4.34605469 5.79597656 4.50460937 6.52945313 4.66796875 7.28515625 C4.83232422 8.13400391 4.83232422 8.13400391 5 9 C4.01 9.495 4.01 9.495 3 10 C0 3.375 0 3.375 0 0 Z " fill="#E6D8C8" transform="translate(259,130)"/>
<path d="M0 0 C1.98 1.65 3.96 3.3 6 5 C4 5.66666667 2 6.33333333 0 7 C-0.38133299 5.0085944 -0.71325582 3.00720923 -1 1 C-0.67 0.67 -0.34 0.34 0 0 Z " fill="#C6B6A5" transform="translate(325,105)"/>
<path d="M0 0 C0 2 0 2 -1.6875 4.125 C-4 6 -4 6 -6.75 6.25 C-7.4925 6.1675 -8.235 6.085 -9 6 C-3.15384615 0 -3.15384615 0 0 0 Z " fill="#C1B8AD" transform="translate(168,87)"/>
<path d="M0 0 C0.99 0.33 1.98 0.66 3 1 C2.67 2.32 2.34 3.64 2 5 C0.35 4.67 -1.3 4.34 -3 4 C-2.67 3.01 -2.34 2.02 -2 1 C-1.34 0.67 -0.68 0.34 0 0 Z " fill="#E3D8C3" transform="translate(232,355)"/>
<path d="M0 0 C0.99 0.495 0.99 0.495 2 1 C2.8125 3.8125 2.8125 3.8125 3 7 C2.01 8.32 1.02 9.64 0 11 C0 7.37 0 3.74 0 0 Z " fill="#F7E9D8" transform="translate(247,313)"/>
<path d="M0 0 C1.42944945 2.35438733 2.08661261 3.48032433 1.625 6.25 C1.41875 6.8275 1.2125 7.405 1 8 C0.67 7.34 0.34 6.68 0 6 C-0.66 6.66 -1.32 7.32 -2 8 C-2.33 5.69 -2.66 3.38 -3 1 C-2.01 0.67 -1.02 0.34 0 0 Z " fill="#493F37" transform="translate(256,239)"/>
<path d="M0 0 C2.97 0.99 5.94 1.98 9 3 C9 4.65 9 6.3 9 8 C8.278125 7.38125 7.55625 6.7625 6.8125 6.125 C4.21618062 4.16333647 2.05328334 3.04684 -1 2 C-0.67 1.34 -0.34 0.68 0 0 Z " fill="#2C251B" transform="translate(281,193)"/>
<path d="M0 0 C0.66 1.32 1.32 2.64 2 4 C1 5 1 5 -2.5625 5.0625 C-3.696875 5.041875 -4.83125 5.02125 -6 5 C-4.06745228 2.9754262 -2.36841312 1.57894208 0 0 Z " fill="#2C2214" transform="translate(310,342)"/>
<path d="M0 0 C0.33 0.66 0.66 1.32 1 2 C2.65 2 4.3 2 6 2 C4.35 3.32 2.7 4.64 1 6 C-0.32 4.68 -1.64 3.36 -3 2 C-2.01 1.34 -1.02 0.68 0 0 Z " fill="#211B15" transform="translate(149,169)"/>
<path d="M0 0 C0.66 1.32 1.32 2.64 2 4 C1.01 4.33 0.02 4.66 -1 5 C-1.73323796 7.01508358 -1.73323796 7.01508358 -2 9 C-3.32 8.67 -4.64 8.34 -6 8 C-4.02 5.36 -2.04 2.72 0 0 Z " fill="#D8C7B3" transform="translate(144,106)"/>
<path d="M0 0 C-1.65 1.32 -3.3 2.64 -5 4 C-7.475 3.01 -7.475 3.01 -10 2 C-6.3558226 -0.4294516 -4.28758728 -0.16179575 0 0 Z " fill="#DCCCBC" transform="translate(204,73)"/>
<path d="M0 0 C1.1725131 0.95117134 2.33787015 1.91117009 3.5 2.875 C4.47453125 3.67550781 4.47453125 3.67550781 5.46875 4.4921875 C5.9740625 4.98976563 6.479375 5.48734375 7 6 C7 6.66 7 7.32 7 8 C4.13792848 6.71700242 1.9754912 5.469364 0 3 C0 2.01 0 1.02 0 0 Z " fill="#99948C" transform="translate(231,419)"/>
<path d="M0 0 C1.32 0 2.64 0 4 0 C4.99 1.98 5.98 3.96 7 6 C4 6 4 6 1.8125 4.125 C0 2 0 2 0 0 Z " fill="#E3D4BF" transform="translate(190,381)"/>
<path d="M0 0 C0.33 1.65 0.66 3.3 1 5 C-1.375 4.6875 -1.375 4.6875 -4 4 C-4.66 3.01 -5.32 2.02 -6 1 C-3 0 -3 0 0 0 Z " fill="#16120D" transform="translate(299,318)"/>
<path d="M0 0 C1.5 1.375 1.5 1.375 3 3 C3 3.66 3 4.32 3 5 C1.824375 4.9690625 1.824375 4.9690625 0.625 4.9375 C-1.98114961 4.81315937 -1.98114961 4.81315937 -4 6 C-3.6875 4.125 -3.6875 4.125 -3 2 C-2.01 1.34 -1.02 0.68 0 0 Z " fill="#E7D6C5" transform="translate(303,264)"/>
<path d="M0 0 C2.475 0.495 2.475 0.495 5 1 C5.625 2.875 5.625 2.875 6 5 C5.34 5.66 4.68 6.32 4 7 C2.02 3.535 2.02 3.535 0 0 Z " fill="#E7D8C3" transform="translate(214,233)"/>
<path d="M0 0 C0.99 0 1.98 0 3 0 C3 0.99 3 1.98 3 3 C0.5 5.1875 0.5 5.1875 -2 7 C-2.66 6.67 -3.32 6.34 -4 6 C-2.1875 3 -2.1875 3 0 0 Z " fill="#28221C" transform="translate(192,224)"/>
<path d="M0 0 C0.66 0 1.32 0 2 0 C1.34 2.64 0.68 5.28 0 8 C-0.33 7.34 -0.66 6.68 -1 6 C-1.99 6.33 -2.98 6.66 -4 7 C-2.79618552 4.50638429 -1.54571278 2.31856917 0 0 Z " fill="#F7E4D1" transform="translate(142,189)"/>
<path d="M0 0 C0.99 0.33 1.98 0.66 3 1 C3 2.65 3 4.3 3 6 C3.66 6.33 4.32 6.66 5 7 C4.34 7.66 3.68 8.32 3 9 C1.68 6.36 0.36 3.72 -1 1 C-0.67 0.67 -0.34 0.34 0 0 Z " fill="#292217" transform="translate(275,124)"/>
<path d="M0 0 C1.65 1.65 3.3 3.3 5 5 C4.67 5.99 4.34 6.98 4 8 C2.35 6.02 0.7 4.04 -1 2 C-0.67 1.34 -0.34 0.68 0 0 Z " fill="#CAC1B5" transform="translate(226,413)"/>
<path d="M0 0 C3.16115776 1.36983503 3.9927092 1.9890638 6 5 C5.01 5.33 4.02 5.66 3 6 C3 5.01 3 4.02 3 3 C1.68 3.33 0.36 3.66 -1 4 C-0.67 2.68 -0.34 1.36 0 0 Z " fill="#E8D8C5" transform="translate(205,330)"/>
<path d="M0 0 C3.3 0 6.6 0 10 0 C10.33 1.32 10.66 2.64 11 4 C10.29875 3.690625 9.5975 3.38125 8.875 3.0625 C5.91063343 1.96697322 3.12301892 1.43577008 0 1 C0 0.67 0 0.34 0 0 Z " fill="#35281A" transform="translate(349,200)"/>
<path d="M0 0 C3.12290635 0.48578543 5.99580359 0.9986012 9 2 C9 2.66 9 3.32 9 4 C8.34 4 7.68 4 7 4 C6.67 4.66 6.34 5.32 6 6 C4 4 2 2 0 0 Z " fill="#D7CEC5" transform="translate(276,194)"/>
<path d="M0 0 C0.66 0.33 1.32 0.66 2 1 C2.625 4.0625 2.625 4.0625 3 7 C0.69 6.01 -1.62 5.02 -4 4 C-2.68 2.68 -1.36 1.36 0 0 Z " fill="#2A231B" transform="translate(188,93)"/>
<path d="M0 0 C0.33 1.98 0.66 3.96 1 6 C-2 5 -2 5 -4 3 C-4 2.34 -4 1.68 -4 1 C-2 0 -2 0 0 0 Z " fill="#13110C" transform="translate(325,314)"/>
<path d="M0 0 C1.32 0 2.64 0 4 0 C4 1.65 4 3.3 4 5 C2.68 5 1.36 5 0 5 C0 3.35 0 1.7 0 0 Z " fill="#F8E9D6" transform="translate(157,309)"/>
<path d="M0 0 C-0.99 0.495 -0.99 0.495 -2 1 C-2 1.66 -2 2.32 -2 3 C-4.31 2.67 -6.62 2.34 -9 2 C-5.96271914 -1.03728086 -4.06215635 -1.35405212 0 0 Z " fill="#EAD9C3" transform="translate(338,267)"/>
<path d="M0 0 C1.32 0.33 2.64 0.66 4 1 C4 1.66 4 2.32 4 3 C3.34 3 2.68 3 2 3 C2.33 4.98 2.66 6.96 3 9 C0.87491756 5.81237635 0.4979837 3.73487777 0 0 Z " fill="#D7C7B6" transform="translate(132,243)"/>
<path d="M0 0 C3.2542015 2.83430453 4.5206753 4.68607774 5 9 C3.0625 7.875 3.0625 7.875 1 6 C0.25 2.8125 0.25 2.8125 0 0 Z " fill="#C2B8AA" transform="translate(359,204)"/>
<path d="M0 0 C0.99 0.33 1.98 0.66 3 1 C2.67 3.31 2.34 5.62 2 8 C0.4375 6.8125 0.4375 6.8125 -1 5 C-0.6875 2.3125 -0.6875 2.3125 0 0 Z " fill="#EFE2D0" transform="translate(140,209)"/>
<path d="M0 0 C2.31 0.33 4.62 0.66 7 1 C4.37801226 3.15377564 2.35595828 4.40072174 -1 5 C-0.67 3.35 -0.34 1.7 0 0 Z " fill="#31271B" transform="translate(339,186)"/>
<path d="M0 0 C0 0.66 0 1.32 0 2 C-2.31 2 -4.62 2 -7 2 C-7.33 2.66 -7.66 3.32 -8 4 C-8.66 3.34 -9.32 2.68 -10 2 C-3.375 -1.125 -3.375 -1.125 0 0 Z " fill="#E5D9CA" transform="translate(275,126)"/>
<path d="M0 0 C1.65 1.65 3.3 3.3 5 5 C4.67 5.99 4.34 6.98 4 8 C2.02 6.35 0.04 4.7 -2 3 C-1.34 2.67 -0.68 2.34 0 2 C0 1.34 0 0.68 0 0 Z " fill="#30281F" transform="translate(229,98)"/>
<path d="M0 0 C0.66 0 1.32 0 2 0 C2.33 1.32 2.66 2.64 3 4 C1.68 4 0.36 4 -1 4 C-1.33 4.99 -1.66 5.98 -2 7 C-2.125 4.625 -2.125 4.625 -2 2 C-1.34 1.34 -0.68 0.68 0 0 Z " fill="#C4BBAF" transform="translate(156,295)"/>
<path d="M0 0 C-0.3125 1.9375 -0.3125 1.9375 -1 4 C-1.99 4.33 -2.98 4.66 -4 5 C-4 4.34 -4 3.68 -4 3 C-4.66 2.67 -5.32 2.34 -6 2 C-3 0 -3 0 0 0 Z " fill="#251E16" transform="translate(299,265)"/>
<path d="M0 0 C0.66 0 1.32 0 2 0 C2.33 1.32 2.66 2.64 3 4 C1.35 4.33 -0.3 4.66 -2 5 C-2.33 3.68 -2.66 2.36 -3 1 C-2.01 1.495 -2.01 1.495 -1 2 C-0.67 1.34 -0.34 0.68 0 0 Z " fill="#EAD5BE" transform="translate(192,182)"/>
<path d="M0 0 C1 3 1 3 0.0625 5.1875 C-0.4634375 6.0846875 -0.4634375 6.0846875 -1 7 C-1.99 6.01 -2.98 5.02 -4 4 C-3 2 -3 2 0 0 Z " fill="#2C2922" transform="translate(264,146)"/>
<path d="" fill="#000000" transform="translate(0,0)"/>
<path d="" fill="#000000" transform="translate(0,0)"/>
<path d="" fill="#000000" transform="translate(0,0)"/>
<path d="" fill="#000000" transform="translate(0,0)"/>
<path d="" fill="#000000" transform="translate(0,0)"/>
<path d="" fill="#000000" transform="translate(0,0)"/>
<path d="" fill="#000000" transform="translate(0,0)"/>
<path d="" fill="#000000" transform="translate(0,0)"/>
<path d="" fill="#000000" transform="translate(0,0)"/>
<path d="" fill="#000000" transform="translate(0,0)"/>
<path d="" fill="#000000" transform="translate(0,0)"/>
<path d="" fill="#000000" transform="translate(0,0)"/>
<path d="" fill="#000000" transform="translate(0,0)"/>
<path d="" fill="#000000" transform="translate(0,0)"/>
<path d="" fill="#000000" transform="translate(0,0)"/>
<path d="" fill="#000000" transform="translate(0,0)"/>
<path d="" fill="#000000" transform="translate(0,0)"/>
<path d="" fill="#000000" transform="translate(0,0)"/>
<path d="" fill="#000000" transform="translate(0,0)"/>
<path d="" fill="#000000" transform="translate(0,0)"/>
<path d="" fill="#000000" transform="translate(0,0)"/>
<path d="" fill="#000000" transform="translate(0,0)"/>
<path d="" fill="#000000" transform="translate(0,0)"/>
<path d="" fill="#000000" transform="translate(0,0)"/>
<path d="" fill="#000000" transform="translate(0,0)"/>
<path d="" fill="#000000" transform="translate(0,0)"/>
<path d="" fill="#000000" transform="translate(0,0)"/>
<path d="" fill="#000000" transform="translate(0,0)"/>
<path d="" fill="#000000" transform="translate(0,0)"/>
<path d="" fill="#000000" transform="translate(0,0)"/>
<path d="" fill="#000000" transform="translate(0,0)"/>
<path d="" fill="#000000" transform="translate(0,0)"/>
<path d="" fill="#000000" transform="translate(0,0)"/>
<path d="" fill="#000000" transform="translate(0,0)"/>
<path d="" fill="#000000" transform="translate(0,0)"/>
<path d="" fill="#000000" transform="translate(0,0)"/>
<path d="" fill="#000000" transform="translate(0,0)"/>
<path d="" fill="#000000" transform="translate(0,0)"/>
<path d="" fill="#000000" transform="translate(0,0)"/>
<path d="" fill="#000000" transform="translate(0,0)"/>
<path d="" fill="#000000" transform="translate(0,0)"/>
<path d="" fill="#000000" transform="translate(0,0)"/>
<path d="" fill="#000000" transform="translate(0,0)"/>
<path d="" fill="#000000" transform="translate(0,0)"/>
<path d="" fill="#000000" transform="translate(0,0)"/>
<path d="" fill="#000000" transform="translate(0,0)"/>
<path d="" fill="#000000" transform="translate(0,0)"/>
<path d="" fill="#000000" transform="translate(0,0)"/>
<path d="" fill="#000000" transform="translate(0,0)"/>
<path d="" fill="#000000" transform="translate(0,0)"/>
<path d="" fill="#000000" transform="translate(0,0)"/>
<path d="" fill="#000000" transform="translate(0,0)"/>
<path d="" fill="#000000" transform="translate(0,0)"/>
<path d="" fill="#000000" transform="translate(0,0)"/>
</svg>
